<?xml version="1.0" standalone="no"?>
<svg xmlns:xlink="http://www.w3.org/1999/xlink" xmlns="http://www.w3.org/2000/svg" viewBox="0 0 500 500"><g id="background-complete"><rect y="382.4" width="500" height="0.25" style="fill:#ebebeb"/><rect x="416.78" y="398.49" width="33.12" height="0.25" style="fill:#ebebeb"/><rect x="322.53" y="401.21" width="8.69" height="0.25" style="fill:#ebebeb"/><rect x="396.59" y="389.21" width="19.19" height="0.25" style="fill:#ebebeb"/><rect x="52.46" y="390.89" width="43.19" height="0.25" style="fill:#ebebeb"/><rect x="104.56" y="390.89" width="6.33" height="0.25" style="fill:#ebebeb"/><rect x="131.47" y="395.11" width="93.68" height="0.25" style="fill:#ebebeb"/><path d="M237,337.8H43.91a5.71,5.71,0,0,1-5.7-5.71V60.66A5.71,5.71,0,0,1,43.91,55H237a5.71,5.71,0,0,1,5.71,5.71V332.09A5.71,5.71,0,0,1,237,337.8ZM43.91,55.2a5.46,5.46,0,0,0-5.45,5.46V332.09a5.46,5.46,0,0,0,5.45,5.46H237a5.47,5.47,0,0,0,5.46-5.46V60.66A5.47,5.47,0,0,0,237,55.2Z" style="fill:#ebebeb"/><path d="M453.31,337.8H260.21a5.72,5.72,0,0,1-5.71-5.71V60.66A5.72,5.72,0,0,1,260.21,55h193.1A5.71,5.71,0,0,1,459,60.66V332.09A5.71,5.71,0,0,1,453.31,337.8ZM260.21,55.2a5.47,5.47,0,0,0-5.46,5.46V332.09a5.47,5.47,0,0,0,5.46,5.46h193.1a5.47,5.47,0,0,0,5.46-5.46V60.66a5.47,5.47,0,0,0-5.46-5.46Z" style="fill:#ebebeb"/><rect x="61.86" y="107.61" width="130.92" height="144.87" style="fill:#e9e9e9"/><rect x="67.62" y="113.35" width="119.74" height="133.69" style="fill:#f4f4f4"/><polygon points="101.46 113.35 67.62 240.09 67.62 171.47 83.11 113.35 101.46 113.35" style="fill:#fff"/><polygon points="116.59 113.35 80.9 247.04 74.17 247.04 109.86 113.35 116.59 113.35" style="fill:#fff"/><polygon points="187.36 149.81 187.36 218.43 179.78 247.04 161.42 247.04 187.36 149.81" style="fill:#fff"/><rect x="124.99" y="107.61" width="4.65" height="144.87" style="fill:#e9e9e9"/><rect x="64.13" y="137.01" width="126.13" height="4.65" style="fill:#e9e9e9"/><rect x="264.2" y="157.94" width="176.29" height="223.23" style="fill:#f0f0f0"/><rect x="270.43" y="166.08" width="163.83" height="47.74" style="fill:#e0e0e0"/><rect x="270.43" y="173.81" width="9.31" height="40.01" style="fill:#ebebeb"/><rect x="315.43" y="173.81" width="9.31" height="40.01" style="fill:#ebebeb"/><rect x="369.98" y="173.31" width="9.31" height="40.01" transform="translate(-27.39 66.44) rotate(-9.78)" style="fill:#ebebeb"/><rect x="281.96" y="179.08" width="9.31" height="34.74" style="fill:#ebebeb"/><rect x="303.35" y="179.08" width="9.31" height="34.74" style="fill:#ebebeb"/><rect x="357.34" y="179.08" width="9.31" height="34.74" style="fill:#ebebeb"/><rect x="331.53" y="178.48" width="9.31" height="34.74" transform="translate(-34.48 77.58) rotate(-12.53)" style="fill:#ebebeb"/><rect x="294.66" y="171.82" width="4.65" height="41.99" style="fill:#ebebeb"/><rect x="350.01" y="171.82" width="4.65" height="41.99" style="fill:#ebebeb"/><rect x="270.43" y="221.37" width="163.83" height="47.74" transform="translate(704.68 490.48) rotate(180)" style="fill:#e0e0e0"/><rect x="424.95" y="229.1" width="9.31" height="40.01" transform="translate(859.2 498.21) rotate(180)" style="fill:#ebebeb"/><rect x="379.95" y="229.1" width="9.31" height="40.01" transform="translate(769.2 498.21) rotate(180)" style="fill:#ebebeb"/><rect x="325.4" y="228.6" width="9.31" height="40.01" transform="translate(613.08 549.65) rotate(-170.22)" style="fill:#ebebeb"/><rect x="413.42" y="234.37" width="9.31" height="34.74" transform="translate(836.14 503.48) rotate(180)" style="fill:#ebebeb"/><rect x="392.02" y="234.37" width="9.31" height="34.74" transform="translate(793.36 503.48) rotate(180)" style="fill:#ebebeb"/><rect x="338.03" y="234.37" width="9.31" height="34.74" transform="translate(685.37 503.48) rotate(180)" style="fill:#ebebeb"/><rect x="363.85" y="233.78" width="9.31" height="34.74" transform="translate(673.75 576.24) rotate(-167.47)" style="fill:#ebebeb"/><rect x="405.37" y="227.12" width="4.65" height="41.99" transform="translate(815.39 496.22) rotate(180)" style="fill:#ebebeb"/><rect x="350.01" y="227.12" width="4.65" height="41.99" transform="translate(704.68 496.22) rotate(180)" style="fill:#ebebeb"/><rect x="270.43" y="229.1" width="9.31" height="40.01" style="fill:#ebebeb"/><rect x="281.96" y="234.37" width="9.31" height="34.74" style="fill:#ebebeb"/><rect x="303.35" y="234.37" width="9.31" height="34.74" style="fill:#ebebeb"/><rect x="294.66" y="227.12" width="4.65" height="41.99" style="fill:#ebebeb"/><rect x="270.43" y="276.67" width="163.83" height="47.74" style="fill:#e0e0e0"/><rect x="364.46" y="284.4" width="9.31" height="40.01" style="fill:#ebebeb"/><rect x="419.01" y="283.9" width="9.31" height="40.01" transform="translate(-45.46 76.37) rotate(-9.78)" style="fill:#ebebeb"/><rect x="330.99" y="289.67" width="9.31" height="34.74" style="fill:#ebebeb"/><rect x="352.38" y="289.67" width="9.31" height="34.74" style="fill:#ebebeb"/><rect x="406.37" y="289.67" width="9.31" height="34.74" style="fill:#ebebeb"/><rect x="380.56" y="289.07" width="9.31" height="34.74" transform="translate(-57.3 90.85) rotate(-12.53)" style="fill:#ebebeb"/><rect x="343.69" y="282.41" width="4.65" height="41.99" style="fill:#ebebeb"/><rect x="399.04" y="282.41" width="4.65" height="41.99" style="fill:#ebebeb"/><rect x="311.94" y="283.9" width="9.31" height="40.01" transform="translate(-47.02 58.19) rotate(-9.78)" style="fill:#ebebeb"/><rect x="299.31" y="289.67" width="9.31" height="34.74" style="fill:#ebebeb"/><rect x="273.49" y="289.07" width="9.31" height="34.74" transform="translate(-59.85 67.63) rotate(-12.53)" style="fill:#ebebeb"/><rect x="291.98" y="282.41" width="4.65" height="41.99" style="fill:#ebebeb"/><path d="M291.26,157.94v-3.31h5.37a62.77,62.77,0,0,1-2-31.45s-.08,13.73,5.23,13.83c8.11.14,8.72-13.83,8.72-13.83s2,20-5.32,31.45h5.56v3.31Z" style="fill:#e0e0e0"/><path d="M306.35,132.34a4.68,4.68,0,1,1-4.68-4.68A4.68,4.68,0,0,1,306.35,132.34Z" style="fill:#e0e0e0"/><path d="M327.26,157.94V156l5.67-2.64-2.83-2.77,7-24.92v15.56s-1,0-1,2.24,3.22,1.72,3.22-.13-1.06-2.11-1.06-2.11V125l6.46,24.66-2.9,3.69,5.8,2.64v1.93Z" style="fill:#e0e0e0"/><polygon points="362 157.94 362 156.41 367.22 155.22 367.22 132.34 371.7 126.08 375.53 130.98 375.53 141.48 377.51 138.74 380.27 137.68 382.25 142.01 378.03 155.22 382.25 156.41 382.25 157.94 362 157.94" style="fill:#e0e0e0"/><polygon points="396.68 158.64 403.09 126.08 422.72 126.08 418.07 144.54 424.95 157.94 396.68 158.64" style="fill:#e0e0e0"/></g><g id="background-simple"><path d="M181.85,105.52c-39.53,13-71.9,39.31-73.18,83.39-.86,29.46,16.77,57.47,46.07,64.79,18.84,4.7,38.71,1.35,57-4.18,17.6-5.34,37-12.74,55.19-5.78S296,268.8,299.48,287.37c4,21.28-8.46,48.68,5.94,67.06,23.28,29.72,61.41-4.79,75.2-26.66,26.55-42.08,37.3-100.89,14.9-147-20.34-41.88-62.41-71.17-107.28-81.19C258.56,93,217.32,93.87,181.85,105.52Z" class="svg-accent" style="fill: rgb(3, 155, 229);" fill="#039be5"/><path d="M181.85,105.52c-39.53,13-71.9,39.31-73.18,83.39-.86,29.46,16.77,57.47,46.07,64.79,18.84,4.7,38.71,1.35,57-4.18,17.6-5.34,37-12.74,55.19-5.78S296,268.8,299.48,287.37c4,21.28-8.46,48.68,5.94,67.06,23.28,29.72,61.41-4.79,75.2-26.66,26.55-42.08,37.3-100.89,14.9-147-20.34-41.88-62.41-71.17-107.28-81.19C258.56,93,217.32,93.87,181.85,105.52Z" style="fill:#fff;opacity:0.9;isolation:isolate"/></g><g id="Shadow"><ellipse id="path" cx="250" cy="416.24" rx="193.89" ry="11.32" style="fill:#f5f5f5"/></g><g id="Plant"><path d="M389,394.31s4.31-9.4-.62-18.67-6.35-11.46-3.21-13.36,4.58,7.42,4.58,7.42a21,21,0,0,0,.46-13.11c-2.19-6.71-3.56-17.63-.57-18.81s.57,13.63,3.16,18.67a43.52,43.52,0,0,0,2.53-11c.36-5.38-.2-14,2.15-16.19s3.87-.68,1.55,11.21A124.39,124.39,0,0,0,396.7,362s5.11-15.6,8.54-16,3.43,4.59.49,9-8.6,12.23-9.53,16.27c0,0,5.61-11.74,10.66-8.14s-4.39,10.68-8.6,13.24-7.14,18.62-7.14,18.62Z" class="svg-accent" style="fill: rgb(3, 155, 229);" fill="#039be5"/><path d="M389,394.31s4.31-9.4-.62-18.67-6.35-11.46-3.21-13.36,4.58,7.42,4.58,7.42a21,21,0,0,0,.46-13.11c-2.19-6.71-3.56-17.63-.57-18.81s.57,13.63,3.16,18.67a43.52,43.52,0,0,0,2.53-11c.36-5.38-.2-14,2.15-16.19s3.87-.68,1.55,11.21A124.39,124.39,0,0,0,396.7,362s5.11-15.6,8.54-16,3.43,4.59.49,9-8.6,12.23-9.53,16.27c0,0,5.61-11.74,10.66-8.14s-4.39,10.68-8.6,13.24-7.14,18.62-7.14,18.62Z" style="fill:#fff;opacity:0.6000000000000001;isolation:isolate"/><path d="M392.36,398.17s-4.2-9.47.84-18.67,6.48-11.35,3.37-13.3-4.67,7.35-4.67,7.35a20.92,20.92,0,0,1-.3-13.12c2.26-6.68,3.76-17.58.79-18.79s-.73,13.61-3.38,18.62a43.41,43.41,0,0,1-2.4-11c-.29-5.39.37-14-2-16.23s-3.86-.73-1.68,11.19a124.78,124.78,0,0,1,2,21.58s-4.93-15.67-8.36-16.17-3.48,4.54-.59,9,8.45,12.36,9.33,16.41c0,0-5.47-11.82-10.56-8.3s4.26,10.75,8.44,13.37,6.91,18.72,6.91,18.72Z" class="svg-accent" style="fill: rgb(3, 155, 229);" fill="#039be5"/><path d="M392.36,398.17s-4.2-9.47.84-18.67,6.48-11.35,3.37-13.3-4.67,7.35-4.67,7.35a20.92,20.92,0,0,1-.3-13.12c2.26-6.68,3.76-17.58.79-18.79s-.73,13.61-3.38,18.62a43.41,43.41,0,0,1-2.4-11c-.29-5.39.37-14-2-16.23s-3.86-.73-1.68,11.19a124.78,124.78,0,0,1,2,21.58s-4.93-15.67-8.36-16.17-3.48,4.54-.59,9,8.45,12.36,9.33,16.41c0,0-5.47-11.82-10.56-8.3s4.26,10.75,8.44,13.37,6.91,18.72,6.91,18.72Z" style="fill:#fff;opacity:0.7000000000000001;isolation:isolate"/><polygon points="373 391.42 407.67 391.42 404.86 416.23 375.81 416.23 373 391.42" class="svg-accent" style="fill: rgb(3, 155, 229);" fill="#039be5"/></g><g id="Chair"><polygon points="355.02 256.07 342.85 328.75 337.27 328.75 348.89 256.79 355.02 256.07" class="svg-bg" style="fill:#263238"/><polygon points="355.02 256.07 342.85 328.75 337.27 328.75 348.89 256.79 355.02 256.07" style="fill:#fff;opacity:0.4;isolation:isolate"/><polygon points="336.17 257.23 326.79 330.33 321.21 330.54 330.07 258.18 336.17 257.23" class="svg-bg" style="fill:#263238"/><polygon points="336.17 257.23 326.79 330.33 321.21 330.54 330.07 258.18 336.17 257.23" style="fill:#fff;opacity:0.4;isolation:isolate"/><polygon points="317.03 254.68 311.19 328.14 305.63 328.62 310.99 255.92 317.03 254.68" class="svg-bg" style="fill:#263238"/><polygon points="317.03 254.68 311.19 328.14 305.63 328.62 310.99 255.92 317.03 254.68" style="fill:#fff;opacity:0.4;isolation:isolate"/><polygon points="305.65 330.23 306.01 345.8 307.65 416.23 313.06 416.23 314.69 345.8 315.05 330.23 305.65 330.23" class="svg-bg" style="fill:#263238"/><polygon points="305.65 330.23 306.01 345.8 307.65 416.23 313.06 416.23 314.69 345.8 315.05 330.23 305.65 330.23" style="fill:#fff;opacity:0.4;isolation:isolate"/><polygon points="305.65 330.23 306.01 346.23 314.69 346.23 315.05 330.23 305.65 330.23" style="opacity:0.2;isolation:isolate"/><polygon points="271.27 415.98 276.27 331.33 284.44 331.33 277.44 415.98 271.27 415.98" class="svg-bg" style="fill:#263238"/><polygon points="277.45 415.98 271.28 415.98 275.81 338.93 276.26 331.23 284.43 331.23 283.8 338.93 277.45 415.98" style="fill:#fff;opacity:0.5;isolation:isolate"/><polygon points="284.43 331.23 283.8 339.23 275.81 339.23 276.26 331.23 284.43 331.23" style="opacity:0.2;isolation:isolate"/><polygon points="343.26 415.98 336.26 331.33 344.43 331.33 349.43 415.98 343.26 415.98" class="svg-bg" style="fill:#263238"/><polygon points="343.25 415.98 336.9 338.93 336.27 331.23 344.44 331.23 344.89 338.93 349.42 415.98 343.25 415.98" style="fill:#fff;opacity:0.5;isolation:isolate"/><polygon points="336.27 331.23 336.9 339.23 344.89 339.23 344.44 331.23 336.27 331.23" style="opacity:0.2;isolation:isolate"/><path d="M271.89,322.56h76.92a0,0,0,0,1,0,0v6.69a5,5,0,0,1-5,5H276.89a5,5,0,0,1-5-5v-6.69A0,0,0,0,1,271.89,322.56Z" transform="translate(620.7 656.81) rotate(180)" class="svg-accent" style="fill: rgb(3, 155, 229);" fill="#039be5"/><rect x="268.68" y="328.4" width="83.33" height="5.84" rx="2.01" transform="translate(620.7 662.65) rotate(180)" class="svg-bg" style="fill:#263238"/><rect x="268.68" y="328.4" width="83.33" height="5.84" rx="2.01" transform="translate(620.7 662.65) rotate(180)" style="fill:#fff;opacity:0.6000000000000001;isolation:isolate"/><path d="M364.11,239.6l-3.45,20.45a4.54,4.54,0,0,1-4.48,3.78H308.41a4.53,4.53,0,0,1-4.51-5l2.22-20.45a4.54,4.54,0,0,1,4.51-4h49A4.54,4.54,0,0,1,364.11,239.6Z" class="svg-bg" style="fill:#263238"/><path d="M364.11,239.6l-3.45,20.45a4.54,4.54,0,0,1-4.48,3.78H308.41a4.53,4.53,0,0,1-4.51-5l2.22-20.45a4.54,4.54,0,0,1,4.51-4h49A4.54,4.54,0,0,1,364.11,239.6Z" style="fill:#fff;opacity:0.5;isolation:isolate"/></g><g id="Character"><polygon points="217.35 380.64 223.93 382.22 227.25 373.14 230.28 364.89 222.79 361.69 219.91 371.71 217.35 380.64" style="fill:#e4897b"/><path d="M225.52,381.78c.16-.73-8.88-2.31-8.88-2.31s-6.82,4.26-12.45,4.23-3.42,3.88,2.53,5.31l14.72,3.54C225.67,393.57,223.89,389.34,225.52,381.78Z" class="svg-bg" style="fill:#263238"/><path d="M210.67,380.22a.87.87,0,0,1,0-1,1,1,0,0,1,.62-.49,3.76,3.76,0,0,1,2,.26c-.63-.56-1.15-1.18-1.07-1.65.06-.31.32-.52.77-.61a1.4,1.4,0,0,1,1.16.24c1.09.8,1.33,3,1.35,3.15a.2.2,0,0,1,0,.11l0,.06-.06.06h0a.13.13,0,0,1-.08,0,15.09,15.09,0,0,1-2.89.35A2.34,2.34,0,0,1,210.67,380.22Zm.77-1a.51.51,0,0,0-.33.25c-.17.33-.09.45-.06.49.34.45,2.09.35,3.54.11C213.64,379.58,212.17,379,211.44,379.19Zm1.71-2c-.14,0-.37.1-.39.22-.07.41,1,1.41,2.23,2.23a4.05,4.05,0,0,0-1.06-2.29,1,1,0,0,0-.56-.18Z" class="svg-accent" style="fill: rgb(3, 155, 229);" fill="#039be5"/><polygon points="219.91 371.71 227.25 373.14 230.28 364.89 222.79 361.69 219.91 371.71" style="opacity:0.2;isolation:isolate"/><path d="M266.41,252.13l-7.31-7.52s-12.07-2.77-13.65-3.56-3.56,3.56-4,5.54,8.31,4,9.69,4a5.92,5.92,0,0,0,2.77-.9l5.74,6Z" style="fill:#e4897b"/><path d="M266.41,252.13l-7.31-7.52s-12.07-2.77-13.65-3.56-3.56,3.56-4,5.54,8.31,4,9.69,4a5.92,5.92,0,0,0,2.77-.9l5.74,6Z" style="opacity:0.2;isolation:isolate"/><path d="M283.06,194.26c2.38,3.45,1.75,9.6-1.22,11.18s1.63,5.15,1.7,7.92-4.47,5.93-4.86,9.89-2.77,11.67,14.54,13.85,32.48-1.2,35.47-8.12-8-9.34-8.64-12.19,2.94-3.07,2.74-7.31-7.38-4-5.76-8.58c2.53-7.17-1-14-1-14Z" class="svg-bg" style="fill:#263238"/><path d="M220.57,366.92l9.12,3.39s24.33-60.83,29.33-61,55.91,23.19,68.67,10.21S322,275.24,322,275.24s-30.69-4.38-33,2.55a48.61,48.61,0,0,0-1.3,6.22c-.35,2.12-.59,3.9-.59,3.9h0c-.95-.24-31.76-8.19-43.9,0C230.86,296.25,220.57,366.92,220.57,366.92Z" class="svg-accent" style="fill: rgb(3, 155, 229);" fill="#039be5"/><path d="M220.57,366.92l9.12,3.39s24.33-60.83,29.33-61,55.91,23.19,68.67,10.21S322,275.24,322,275.24s-30.69-4.38-33,2.55a48.61,48.61,0,0,0-1.3,6.22c-.35,2.12-.59,3.9-.59,3.9h0c-.95-.24-31.76-8.19-43.9,0C230.86,296.25,220.57,366.92,220.57,366.92Z" style="fill:#fff;opacity:0.6000000000000001;isolation:isolate"/><path d="M284.12,226.55c-7.42,3.23-13,26.35-13,26.35L264.44,247l-7.32,6.91s6.2,15.43,14.77,16.57,20.25-14.19,22.52-23.48S284.12,226.55,284.12,226.55Z" class="svg-accent" style="fill: rgb(3, 155, 229);" fill="#039be5"/><path d="M284.12,226.55c-7.42,3.23-13,26.35-13,26.35L264.44,247l-7.32,6.91s6.2,15.43,14.77,16.57,20.25-14.19,22.52-23.48S284.12,226.55,284.12,226.55Z" style="opacity:0.1;isolation:isolate"/><polygon points="273.02 406.59 279.58 404.91 278.32 395.51 277.15 386.89 269.04 387.61 271.15 397.66 273.02 406.59" style="fill:#e4897b"/><path d="M281.34,404.59c0-.74-9.18,0-9.18,0s-5.56,5.8-11,7.16-2.36,4.6,3.76,4.52L280,416C284.38,416,281.62,412.32,281.34,404.59Z" class="svg-bg" style="fill:#263238"/><path d="M266.56,406.73a.87.87,0,0,1-.23-1,1,1,0,0,1,.48-.63,3.77,3.77,0,0,1,2.05-.24c-.75-.39-1.41-.87-1.44-1.35,0-.31.18-.57.59-.78a1.42,1.42,0,0,1,1.19,0c1.24.5,2,2.62,2.07,2.72a.2.2,0,0,1,0,.11h0a.43.43,0,0,1,0,.05h0a.2.2,0,0,1-.06.09.09.09,0,0,1-.06,0h0a11.23,11.23,0,0,1-3.81,1.2A1.24,1.24,0,0,1,266.56,406.73Zm.5-1.18a.48.48,0,0,0-.26.32c-.09.36,0,.46.06.49.44.35,2.11-.18,3.46-.77C269.29,405.38,267.71,405.16,267.06,405.55Zm1.16-2.35c-.12.06-.33.18-.32.31,0,.41,1.35,1.11,2.71,1.6a4,4,0,0,0-1.59-1.95,1.21,1.21,0,0,0-.36-.07A1,1,0,0,0,268.22,403.2Z" class="svg-accent" style="fill: rgb(3, 155, 229);" fill="#039be5"/><polygon points="271.2 397.86 278.36 395.69 277.17 386.98 269.06 387.66 271.2 397.86" style="opacity:0.2;isolation:isolate"/><polygon points="321.26 270.47 322 275.24 289 277.79 288.12 272.14 321.26 270.47" class="svg-bg" style="fill:#263238"/><polygon points="321.26 270.47 322 275.24 289 277.79 288.12 272.14 321.26 270.47" style="opacity:0.2;isolation:isolate"/><rect x="310.42" y="270.05" width="1.64" height="8.35" transform="translate(648.89 515.18) rotate(174.13)" class="svg-bg" style="fill:#263238"/><rect x="296.01" y="271.9" width="7.24" height="5.49" transform="translate(616.26 529.52) rotate(176.32)" style="fill:#fff"/><rect x="290.16" y="270.94" width="1.64" height="8.35" transform="translate(608.58 519.01) rotate(174.13)" class="svg-bg" style="fill:#263238"/><polygon points="233.45 366.94 220.17 362.42 219.6 367.86 229.68 371.43 233.45 366.94" class="svg-accent" style="fill: rgb(3, 155, 229);" fill="#039be5"/><path d="M305.65,322.6s-2.08,0-34.27-1.45c0,0,4.81,40.25,7.43,70.37l-9.62,1.64s-23-64.51-22.75-74.76,12-13.25,12-13.25S281.37,318.4,305.65,322.6Z" class="svg-accent" style="fill: rgb(3, 155, 229);" fill="#039be5"/><path d="M305.65,322.6s-2.08,0-34.27-1.45c0,0,4.81,40.25,7.43,70.37l-9.62,1.64s-23-64.51-22.75-74.76,12-13.25,12-13.25S281.37,318.4,305.65,322.6Z" style="fill:#fff;opacity:0.6000000000000001;isolation:isolate"/><path d="M305.65,322.6s-2.08,0-34.27-1.45c0,0,4.81,40.25,7.43,70.37l-9.62,1.64s-23-64.51-22.75-74.76,12-13.25,12-13.25S281.37,318.4,305.65,322.6Z" style="opacity:0.30000000000000004;isolation:isolate"/><polygon points="280.22 388.6 266.99 390.11 269.54 395.3 280.25 393.92 280.22 388.6" class="svg-accent" style="fill: rgb(3, 155, 229);" fill="#039be5"/><path d="M287.11,287.91l17.95,3.74s-9.92-5.48-17.36-7.64C287.35,286.13,287.11,287.91,287.11,287.91Z" style="opacity:0.30000000000000004;isolation:isolate"/><path d="M286.47,197s-4.78-21.5,15.11-19.38c25,2.67,15.48,33.66,3.11,31.78S286.47,197,286.47,197Z" class="svg-bg" style="fill:#263238"/><path d="M299.41,227.61c6.19.76,9.77-6.08,9.77-6.08-5.85-4-2.9-13-2.9-13l-9.4,3.31a28.6,28.6,0,0,1,1,4c1,5.86-1.67,6.33-1.67,6.33A4,4,0,0,0,299.41,227.61Z" style="fill:#e4897b"/><path d="M296.88,211.82a28.6,28.6,0,0,1,1,4c4.5-1.8,8.39-7.32,8.39-7.32Z" style="opacity:0.2;isolation:isolate"/><path d="M297.18,183.83c-8.5.73-10.84,5.51-10.71,14.32.16,11,3.26,18.57,13.67,15.32C314.29,209.05,311.28,182.62,297.18,183.83Z" style="fill:#e4897b"/><path d="M291.92,197.2a18.29,18.29,0,0,1-2.17,3.74,2.34,2.34,0,0,0,2.32.76Z" style="fill:#de5753"/><path d="M297.06,196.06c0,.7.45,1.24.92,1.21s.81-.62.77-1.31-.46-1.25-.93-1.22S297,195.36,297.06,196.06Z" class="svg-bg" style="fill:#263238"/><path d="M298,194.76l-1.56-.5S297.3,195.49,298,194.76Z" class="svg-bg" style="fill:#263238"/><path d="M288.36,196.46c0,.7.46,1.24.92,1.21s.81-.62.77-1.32-.46-1.24-.93-1.21S288.32,195.76,288.36,196.46Z" class="svg-bg" style="fill:#263238"/><path d="M289.32,195.16l-1.56-.5S288.6,195.89,289.32,195.16Z" class="svg-bg" style="fill:#263238"/><path d="M300.43,191.52a.38.38,0,0,1-.26-.11,4.1,4.1,0,0,0-3.45-.87.36.36,0,0,1-.43-.27.37.37,0,0,1,.27-.44,4.76,4.76,0,0,1,4.13,1.07.37.37,0,0,1,0,.52A.44.44,0,0,1,300.43,191.52Z" class="svg-bg" style="fill:#263238"/><path d="M287.11,191.71a.34.34,0,0,1-.28-.13.36.36,0,0,1,.05-.51,4.31,4.31,0,0,1,3.65-1.06.36.36,0,0,1-.19.7,3.62,3.62,0,0,0-3,.92A.34.34,0,0,1,287.11,191.71Z" class="svg-bg" style="fill:#263238"/><path d="M307.69,197.35s-4.57-6.64-4.43-12.08c0,0-17.43-5.43-16.79,11.73,0,0-3-15,11.62-16.62s16.35,19.77,9.36,26.78C307.45,207.16,310.52,201.5,307.69,197.35Z" class="svg-bg" style="fill:#263238"/><path d="M306.45,199.26a3.75,3.75,0,0,1,3.72-3.75c2.66.06,4.38,5.36-2.06,7.22C307.19,203,306.58,202.12,306.45,199.26Z" style="fill:#e4897b"/><path d="M294.2,205.81a4.94,4.94,0,0,1-1.05-.11.35.35,0,0,1-.29-.42.36.36,0,0,1,.42-.29,3.78,3.78,0,0,0,4.4-2.34.37.37,0,0,1,.46-.22.36.36,0,0,1,.22.46A4.55,4.55,0,0,1,294.2,205.81Z" class="svg-bg" style="fill:#263238"/><path d="M297.41,184.46s4.62,13.68,13.4,12.74-6.31-17.46-6.31-17.46-14.83-4.18-21.26,4S286.47,197,286.47,197,285,186.22,297.41,184.46Z" class="svg-bg" style="fill:#263238"/><path d="M304.44,196.09l-.09,0c-7.33-2.78-7.2-12.52-7.19-12.62a.25.25,0,0,1,.25-.24h0a.25.25,0,0,1,.25.25c0,.1-.13,9.49,6.87,12.14a.25.25,0,0,1,.14.33A.25.25,0,0,1,304.44,196.09Z" class="svg-bg" style="fill:#263238"/><path d="M287.11,277.79l-3,9.41s43.69,3.17,48.07,28.23c0,0,6.84,3.67-1.05-20.72s-7.94-51.28-5.87-71.33c0,0-1.51-.67-4-1.5l-1.17-.36A55.32,55.32,0,0,0,301.58,219c-7.68.4-12.52,3.15-15.11,5.21a13,13,0,0,0-2.35,2.3S274.84,252.81,287.11,277.79Z" class="svg-accent" style="fill: rgb(3, 155, 229);" fill="#039be5"/><path d="M286.47,224.25s2.7,9.29,14.46,7.9,19.12-10.63,19.12-10.63A55.32,55.32,0,0,0,301.58,219C293.9,219.44,289.06,222.19,286.47,224.25Z" style="fill:#e4897b"/><path d="M284.44,249.28s-11.26-5.46-13.16-5.85-9.22-2.18-12-2.38-5.14,7.58-3,8.54,11.66,1,12.35,1,2.48-1.52,2.48-1.52L281,255.5Z" style="fill:#e4897b"/><path d="M325.27,223.38c-8.61-2.67-14.55,19.25-16.92,28.65S281,246.59,281,246.59l-4.65,8.09s10.52,21.75,33.9,21.47S335.38,226.51,325.27,223.38Z" class="svg-accent" style="fill: rgb(3, 155, 229);" fill="#039be5"/><path d="M325.27,223.38c-8.61-2.67-14.55,19.25-16.92,28.65S281,246.59,281,246.59l-4.65,8.09s10.52,21.75,33.9,21.47S335.38,226.51,325.27,223.38Z" style="opacity:0.1;isolation:isolate"/><path d="M211.3,206.22a14.14,14.14,0,0,0-9.09-7c-6.43-1.55-10.52,4.87-10.52,4.87Z" class="svg-accent" style="fill: rgb(3, 155, 229);" fill="#039be5"/><path d="M211.3,206.22a14.14,14.14,0,0,0-9.09-7c-6.43-1.55-10.52,4.87-10.52,4.87Z" style="fill:#fff;opacity:0.7000000000000001;isolation:isolate"/><path d="M202.21,199.23c-4,0-8.24,3.29-9.52,7l-15.91,2a14.37,14.37,0,0,1,5.4-7.12,67.32,67.32,0,0,0,10.37-1.84C199.09,197.64,202.21,199.23,202.21,199.23Z" class="svg-accent" style="fill: rgb(3, 155, 229);" fill="#039be5"/><path d="M202.21,199.23c-4,0-8.24,3.29-9.52,7l-15.91,2a14.37,14.37,0,0,1,5.4-7.12,67.32,67.32,0,0,0,10.37-1.84C199.09,197.64,202.21,199.23,202.21,199.23Z" style="fill:#fff;opacity:0.8;isolation:isolate"/><path d="M170.91,234.73,156.25,229s-6.7,1.93-12,1.36-10-5.06-10-5.06,5.53,7.8,18.32,9.57S170.91,234.73,170.91,234.73Z" class="svg-accent" style="fill: rgb(3, 155, 229);" fill="#039be5"/><path d="M170.91,234.73,156.25,229s-6.7,1.93-12,1.36-10-5.06-10-5.06,5.53,7.8,18.32,9.57S170.91,234.73,170.91,234.73Z" style="fill:#fff;opacity:0.8;isolation:isolate"/><path d="M170.91,234.73s-16.6,1.52-20-1.39-6.33-10.69-6.33-10.69l-14.24-2S138.74,242.06,170.91,234.73Z" class="svg-accent" style="fill: rgb(3, 155, 229);" fill="#039be5"/><path d="M170.91,234.73s-16.6,1.52-20-1.39-6.33-10.69-6.33-10.69l-14.24-2S138.74,242.06,170.91,234.73Z" style="fill:#fff;opacity:0.7000000000000001;isolation:isolate"/></g><g id="Typewriter"><path d="M246,246.59s-1.06-17.11-7.29-26.11H216s7.52,13,7.62,25.22Z" class="svg-accent" style="fill: rgb(3, 155, 229);" fill="#039be5"/><path d="M246,246.59s-1.06-17.11-7.29-26.11H216s7.52,13,7.62,25.22Z" style="fill:#fff;opacity:0.8;isolation:isolate"/><polygon points="271.16 255.82 271.16 252.9 248.81 242.24 220.57 242.24 220.57 255.82 271.16 255.82" class="svg-bg" style="fill:#263238"/><rect x="220.57" y="242.73" width="27.35" height="13.08" transform="translate(468.49 498.55) rotate(180)" style="fill:#fff;opacity:0.1;isolation:isolate"/><path d="M221,246.59h25.71a3.17,3.17,0,0,0,3.17-3.16h0a3.17,3.17,0,0,0-3.17-3.17H221a3.17,3.17,0,0,0-3.17,3.17h0A3.17,3.17,0,0,0,221,246.59Z" class="svg-bg" style="fill:#263238"/><path d="M221,246.59h25.71a3.17,3.17,0,0,0,3.17-3.16h0a3.17,3.17,0,0,0-3.17-3.17H221a3.17,3.17,0,0,0-3.17,3.17h0A3.17,3.17,0,0,0,221,246.59Z" style="fill:#fff;opacity:0.2;isolation:isolate"/><path d="M246,246.59h.71a3.17,3.17,0,0,0,3.17-3.16h0a3.17,3.17,0,0,0-3.17-3.17H246a3.17,3.17,0,0,0-3.17,3.17h0A3.17,3.17,0,0,0,246,246.59Z" style="fill:#fff;opacity:0.2;isolation:isolate"/><path d="M247.33,241.94h4L254.65,252h-1.29l-3-6.63h-3.06s-1.54-.89-1.47-2S247.33,241.94,247.33,241.94Z" class="svg-bg" style="fill:#263238"/><path d="M247.33,241.94h4L254.65,252h-1.29l-3-6.63h-3.06s-1.54-.89-1.47-2S247.33,241.94,247.33,241.94Z" style="fill:#fff;opacity:0.2;isolation:isolate"/></g><g id="Desk"><polygon points="231.93 416.23 225.8 416.23 224.8 262.98 232.93 262.98 231.93 416.23" class="svg-bg" style="fill:#263238"/><polygon points="232.94 263.23 232.78 287.95 231.94 416.23 225.81 416.23 224.97 287.95 224.81 263.23 232.94 263.23" style="fill:#fff;opacity:0.4;isolation:isolate"/><polygon points="232.94 263.23 232.78 288.23 224.97 288.23 224.81 263.23 232.94 263.23" style="opacity:0.2;isolation:isolate"/><polygon points="296.97 416.23 290.85 416.23 279.84 262.98 287.97 262.98 296.97 416.23" class="svg-bg" style="fill:#263238"/><polygon points="296.98 416.23 290.85 416.23 280.38 270.59 279.83 263.23 287.96 263.23 288.4 270.59 296.98 416.23" style="fill:#fff;opacity:0.5;isolation:isolate"/><polygon points="288.4 270.23 280.38 270.23 279.83 263.23 287.96 263.23 288.4 270.23" style="opacity:0.2;isolation:isolate"/><polygon points="166.89 416.23 160.76 416.23 169.77 262.98 177.9 262.98 166.89 416.23" class="svg-bg" style="fill:#263238"/><polygon points="177.9 263.23 177.35 270.59 166.88 416.23 160.76 416.23 169.32 270.59 169.76 263.23 177.9 263.23" style="fill:#fff;opacity:0.5;isolation:isolate"/><polygon points="169.76 263.23 177.9 263.23 177.35 270.23 169.32 270.23 169.76 263.23" style="opacity:0.2;isolation:isolate"/><path d="M163.33,259.14H294.41a0,0,0,0,1,0,0v5.51a2.16,2.16,0,0,1-2.16,2.16H165.49a2.16,2.16,0,0,1-2.16-2.16v-5.51A0,0,0,0,1,163.33,259.14Z" class="svg-bg" style="fill:#263238"/><path d="M163.33,259.14H294.41a0,0,0,0,1,0,0v5.51a2.16,2.16,0,0,1-2.16,2.16H165.49a2.16,2.16,0,0,1-2.16-2.16v-5.51A0,0,0,0,1,163.33,259.14Z" style="fill:#fff;opacity:0.6000000000000001;isolation:isolate"/><rect x="163.33" y="259.14" width="131.08" height="3.84" style="opacity:0.2;isolation:isolate"/><path d="M298.21,260.14H159.53a2.16,2.16,0,0,1-2.16-2.16h0a2.16,2.16,0,0,1,2.16-2.16H298.21a2.16,2.16,0,0,1,2.16,2.16h0A2.16,2.16,0,0,1,298.21,260.14Z" class="svg-bg" style="fill:#263238"/><path d="M298.21,260.14H159.53a2.16,2.16,0,0,1-2.16-2.16h0a2.16,2.16,0,0,1,2.16-2.16H298.21a2.16,2.16,0,0,1,2.16,2.16h0A2.16,2.16,0,0,1,298.21,260.14Z" style="fill:#fff;opacity:0.6000000000000001;isolation:isolate"/></g><g id="Sheets"><polygon points="121 415.97 82.28 415.97 82.28 405.9 76.35 405.9 82.68 404.1 85.05 386.08 76.35 382.96 84.66 381.33 84.26 364.87 76.35 361.69 84.26 361.69 83.47 334.25 78.33 334.25 86.24 330.22 85.45 310.37 123.82 310.37 123.82 317 128.17 318.19 121.45 319.38 122.24 349.15 121 415.97" class="svg-accent" style="fill: rgb(3, 155, 229);" fill="#039be5"/><polygon points="76.35 382.96 85.06 386.09 82.68 404.1 76.35 405.9 82.29 405.9 82.29 415.98 121 415.98 122.24 349.16 121.45 319.38 128.18 318.19 123.82 317.01 123.82 310.38 85.45 310.38 86.24 330.23 78.33 334.25 83.47 334.25 83.47 334.28 84.26 361.69 76.35 361.69 84.26 364.88 84.66 381.33 76.35 382.96" style="fill:#fff;opacity:0.8;isolation:isolate"/><polygon points="85.06 386.09 99.89 388.8 99.1 398.33 87.63 398.33 100.88 400.8 99.89 403.25 90.79 403.25 103.85 405.43 97.32 406.22 97.71 409.18 82.29 405.9 82.29 415.98 121 415.98 122.24 349.16 121.45 319.38 128.18 318.19 123.82 317.01 123.82 310.38 106.22 310.38 106.22 317.01 93.36 317.01 106.22 318.99 106.22 321.36 90.79 322.68 104.24 323.54 104.64 326.9 106.22 332.04 83.44 333.84 78.33 334.25 83.47 334.28 102.26 334.41 102.26 341.93 92.28 341.93 106.22 344.11 105.23 347.16 110.9 347.16 103.85 349.05 88.81 349.05 102.26 350.68 102.26 357.36 87.43 357.36 99.69 359.14 99.89 363.18 76.35 361.69 84.26 364.88 99.5 367.84 100.48 373.78 91.19 373.78 100.68 375.56 100.68 379.91 93.63 380.7 102.26 382.24 99.89 385.05 76.35 382.96 85.06 386.09" style="opacity:0.1;isolation:isolate"/><path d="M140.89,281.91a14.14,14.14,0,0,0-9.09-7c-6.44-1.56-10.52,4.87-10.52,4.87Z" class="svg-accent" style="fill: rgb(3, 155, 229);" fill="#039be5"/><path d="M140.89,281.91a14.14,14.14,0,0,0-9.09-7c-6.44-1.56-10.52,4.87-10.52,4.87Z" style="fill:#fff;opacity:0.7000000000000001;isolation:isolate"/><path d="M131.8,274.93c-4,0-8.24,3.29-9.52,7l-15.91,2a14.25,14.25,0,0,1,5.4-7.12,69.15,69.15,0,0,0,10.37-1.84C128.67,273.34,131.8,274.93,131.8,274.93Z" class="svg-accent" style="fill: rgb(3, 155, 229);" fill="#039be5"/><path d="M131.8,274.93c-4,0-8.24,3.29-9.52,7l-15.91,2a14.25,14.25,0,0,1,5.4-7.12,69.15,69.15,0,0,0,10.37-1.84C128.67,273.34,131.8,274.93,131.8,274.93Z" style="fill:#fff;opacity:0.8;isolation:isolate"/><path d="M125.9,302.51l-14.66-5.75s-6.7,1.92-12,1.36-10-5.07-10-5.07,5.54,7.8,18.33,9.58S125.9,302.51,125.9,302.51Z" class="svg-accent" style="fill: rgb(3, 155, 229);" fill="#039be5"/><path d="M125.9,302.51l-14.66-5.75s-6.7,1.92-12,1.36-10-5.07-10-5.07,5.54,7.8,18.33,9.58S125.9,302.51,125.9,302.51Z" style="fill:#fff;opacity:0.8;isolation:isolate"/><path d="M125.9,302.51s-16.61,1.51-20-1.4-6.33-10.68-6.33-10.68l-14.25-2S93.72,309.84,125.9,302.51Z" class="svg-accent" style="fill: rgb(3, 155, 229);" fill="#039be5"/><path d="M125.9,302.51s-16.61,1.51-20-1.4-6.33-10.68-6.33-10.68l-14.25-2S93.72,309.84,125.9,302.51Z" style="fill:#fff;opacity:0.7000000000000001;isolation:isolate"/><path d="M120.54,338.59l-6.19-5.78s24.41-3.22,33.22-10.13l7.87,8.17S146.47,343.13,120.54,338.59Z" class="svg-accent" style="fill: rgb(3, 155, 229);" fill="#039be5"/><path d="M120.54,338.59l-6.19-5.78s24.41-3.22,33.22-10.13l7.87,8.17S146.47,343.13,120.54,338.59Z" style="fill:#fff;opacity:0.8;isolation:isolate"/><path d="M149.73,349.15l5.94-6s-24.53-2.17-33.63-8.7l-7.52,8.51S124,354.8,149.73,349.15Z" class="svg-accent" style="fill: rgb(3, 155, 229);" fill="#039be5"/><path d="M149.73,349.15l5.94-6s-24.53-2.17-33.63-8.7l-7.52,8.51S124,354.8,149.73,349.15Z" style="fill:#fff;opacity:0.7000000000000001;isolation:isolate"/><polygon points="112.35 396.33 116.91 398.08 115.91 416.23 154.81 415.98 154.81 408.38 157.45 407.8 153.81 406.11 154.81 379.24 156.26 378.41 153.81 376.75 154.81 356.57 157.45 355.18 154.81 355.21 154.81 347.16 146.17 347.59 114.91 349.16 115.91 364.08 112.35 365.86 115.91 365.42 115.78 369.23 114.91 395.74 112.35 396.33" class="svg-accent" style="fill: rgb(3, 155, 229);" fill="#039be5"/><polygon points="112.35 396.33 116.91 398.08 115.91 416.23 154.81 415.98 154.81 408.38 157.45 407.8 153.81 406.11 154.81 379.24 156.26 378.41 153.81 376.75 154.81 356.57 157.45 355.18 154.81 355.21 154.81 347.16 146.17 347.59 114.91 349.16 115.91 364.08 112.35 365.86 115.91 365.42 115.78 369.23 114.91 395.74 112.35 396.33" style="fill:#fff;opacity:0.8;isolation:isolate"/><polygon points="146.17 414.72 115.91 416.23 154.81 415.98 154.81 408.38 157.45 407.8 153.81 406.11 154.81 379.24 156.26 378.41 153.81 376.75 154.81 356.57 157.45 355.18 154.81 355.21 154.81 347.16 146.17 347.59 145.13 355.58 119.47 358.35 145.13 358.35 145.13 365.07 115.91 365.42 115.78 369.23 145.13 369.23 145.13 377.18 131.54 377.18 145.13 379.7 143.41 394.7 112.35 396.33 116.91 398.08 143.41 398.33 145.13 406.81 123.63 406.81 146.17 408.99 146.17 412.74 119.28 411.16 146.17 414.72" style="opacity:0.1;isolation:isolate"/></g></svg>