<?xml version="1.0" standalone="no"?>
<svg xmlns="http://www.w3.org/2000/svg" xmlns:xlink="http://www.w3.org/1999/xlink" viewBox="0 0 500 500"><defs><clipPath id="clip-path"><circle cx="249.97" cy="147.73" r="71.2" style="fill:none"/></clipPath></defs><g id="background-complete"><path d="M238.4,341.53H45.31a5.72,5.72,0,0,1-5.71-5.71V64.39a5.72,5.72,0,0,1,5.71-5.66H238.4a5.71,5.71,0,0,1,5.7,5.71h0V335.82A5.71,5.71,0,0,1,238.4,341.53ZM45.31,58.93a5.47,5.47,0,0,0-5.46,5.46V335.82a5.47,5.47,0,0,0,5.46,5.46H238.4a5.46,5.46,0,0,0,5.45-5.46V64.39a5.46,5.46,0,0,0-5.45-5.46Z" style="fill:#f5f5f5"/><path d="M454.7,341.53H261.6a5.71,5.71,0,0,1-5.7-5.71V64.39a5.71,5.71,0,0,1,5.7-5.66H454.7a5.71,5.71,0,0,1,5.7,5.66V335.82A5.71,5.71,0,0,1,454.7,341.53ZM261.6,58.93a5.46,5.46,0,0,0-5.45,5.46V335.82a5.46,5.46,0,0,0,5.45,5.46H454.7a5.48,5.48,0,0,0,5.47-5.46V64.39a5.48,5.48,0,0,0-5.47-5.46Z" style="fill:#f5f5f5"/><rect x="53.79" y="392.21" width="41.21" height="0.25" style="fill:#e6e6e6"/><rect x="137.67" y="390.21" width="41.33" height="0.25" style="fill:#e6e6e6"/><rect x="222.78" y="390.21" width="10" height="0.25" style="fill:#e6e6e6"/><rect x="86.58" y="398.75" width="46.25" height="0.25" style="fill:#e6e6e6"/><rect x="271.2" y="392.08" width="21.6" height="0.25" style="fill:#e6e6e6"/><rect x="301.7" y="392.08" width="27.93" height="0.25" style="fill:#e6e6e6"/><rect x="401.89" y="396.31" width="62.44" height="0.25" style="fill:#e6e6e6"/><path d="M47.77,103H144c12.33,0,15.3-17.26,3.66-21.31l-.45-.15c12.88-10.73-15.38-33.36-46.07-2,2.39-10.45-24.89-6.67-33.24,7.58C64.93,77.77,38.92,94,47.77,103Z" style="fill:#e6e6e6"/><path d="M294.59,96.85H349s12.75-4.8,11.1-17.52-20.9-2.12-20.9-2.12S345,59.46,326.36,64.49,305.9,87.12,305.9,87.12,281.42,82.85,294.59,96.85Z" style="fill:#ebebeb"/><path d="M437.42,313.14l-32-.12a4.69,4.69,0,0,0-4.7,4.7V329a4.71,4.71,0,0,1-4.71,4.71H349a4.71,4.71,0,0,1-4.71-4.7V287.56a4.7,4.7,0,0,0-4.72-4.68h-10a4.7,4.7,0,0,1-4.7-4.71V255.55a4.71,4.71,0,0,0-4.71-4.7H303.8a4.71,4.71,0,0,0-4.71,4.7v6.66a4.7,4.7,0,0,1-4.7,4.71h-1.54a4.69,4.69,0,0,1-4.69-4.7V237.6a4.71,4.71,0,0,0-4.72-4.71H267.22a4.73,4.73,0,0,0-4.72,4.71v24.66a4.69,4.69,0,0,1-4.69,4.7h-5.06a4.7,4.7,0,0,1-4.7-4.7v-49.7h0v-24.9h-1V203c-.09-.13-.18-.26-.28-.38l-37.36-21.45c-.78-.86-1.23,0-1.23-1.15v-30.7l-2.57-1.84L159,114v-13.3h-1v12.59l-.19-.14V262.27a4.71,4.71,0,0,1-4.72,4.71H147a4.69,4.69,0,0,1-4.7-4.7l-1.47-55.67a3.76,3.76,0,0,0-.38-1.54l-9.12-19h-.68V164.51a3.8,3.8,0,0,0-3.8-3.81H125V145.46h-1V160.7h-1a3.81,3.81,0,0,0-3.81,3.81v1h-4.27v-1a3.8,3.8,0,0,0-3.8-3.81H109.5V145.46h-1V160.7h-1.18a3.81,3.81,0,0,0-3.81,3.81V186h-.68l-9.12,19a3.76,3.76,0,0,0-.38,1.54l-1.5,55.61a4.7,4.7,0,0,1-4.7,4.71H78.51a4.7,4.7,0,0,0-4.69,4.7v6.48a4.7,4.7,0,0,1-4.71,4.7H63a4.68,4.68,0,0,0-4.64,3.89L41.94,372.78a5.27,5.27,0,0,0-.09.89,4.73,4.73,0,0,0,4.73,4.7H437.37C438.36,378.37,437.42,313.14,437.42,313.14Z" style="fill:#f0f0f0"/><path d="M399.83,111.56c-.91-7-7-5.37-7-5.37s3.21-9.77-7.05-7a15.21,15.21,0,0,0-7.35,4.32,11.73,11.73,0,0,0,.14,16c3,3.08,7.27,7.37,15.23,3C396,121.4,400.73,118.56,399.83,111.56Z" style="fill:#f0f0f0"/><path d="M405.3,143.55a4.64,4.64,0,1,1-4.64-4.64A4.63,4.63,0,0,1,405.3,143.55Z" style="fill:#f5f5f5"/><rect x="392.26" y="164.19" width="26.3" height="48.83" style="fill:#ebebeb"/><rect x="384.93" y="164.19" width="26.3" height="48.83" style="fill:#f5f5f5"/><rect x="381.49" y="153.55" width="39.24" height="10.64" style="fill:#f5f5f5"/><rect x="414.68" y="153.55" width="6.04" height="10.64" style="fill:#ebebeb"/><rect x="263.86" y="246.08" width="178.38" height="132.4" style="fill:#e6e6e6"/><polygon points="354.56 145.17 253.64 246.08 455.47 246.08 354.56 145.17" style="fill:#f5f5f5"/><rect x="253.64" y="246.08" width="201.83" height="11.64" style="fill:#e0e0e0"/><path d="M73,171.44h0a1.87,1.87,0,0,0-1.87,1.88V398.86h3.75V173.29A1.88,1.88,0,0,0,73,171.44Z" style="fill:#e0e0e0"/><circle cx="75.34" cy="203.09" r="24.41" style="fill:#e0e0e0"/><circle cx="78.35" cy="203.09" r="24.41" style="fill:#fafafa"/><path d="M93.84,198.7v-.07a2.21,2.21,0,0,0-2.15-2H63.33a1.84,1.84,0,0,0-1.85,2h.38l.56,6.46h-.37l.43,4.91h5.39s-.07-.58-.1-.9a2.6,2.6,0,0,1,2.63-2.88,3.21,3.21,0,0,1,3.13,2.88c0,.32.11.9.11.9h9s0-.58,0-.9a2.6,2.6,0,0,1,2.63-2.88,3.21,3.21,0,0,1,3.13,2.88c0,.32.06.9.06.9h6.47l-.68-7.87H93.4l-.3-3.49ZM66.17,209H63.45l-.9-10.32h2.71Zm4.15-6.82h-3.5l-.31-3.5H70Zm5.65,0H72.45l-.3-3.5h3.51Zm5.63,0H78.1l-.31-3.5H81.3Zm5.65,0H83.74l-.3-3.5h3.5ZM92.46,209H89.75l-.9-10.32h2.71Z" style="fill:#e0e0e0"/><path d="M70.49,206.91a2.06,2.06,0,0,0-2.08,2.28,2.54,2.54,0,0,0,2.48,2.28A2.05,2.05,0,0,0,73,209.19,2.54,2.54,0,0,0,70.49,206.91Zm.3,3.43a1.27,1.27,0,0,1-1.23-1.15,1,1,0,0,1,1-1.13,1.27,1.27,0,0,1,1.25,1.13A1,1,0,0,1,70.79,210.34Z" style="fill:#e0e0e0"/><path d="M85.26,206.91a2.05,2.05,0,0,0-2.08,2.28,2.53,2.53,0,0,0,2.48,2.28,2,2,0,0,0,2.08-2.28A2.54,2.54,0,0,0,85.26,206.91Zm.3,3.43a1.28,1.28,0,0,1-1.24-1.15,1,1,0,0,1,1-1.13,1.26,1.26,0,0,1,1.24,1.13A1,1,0,0,1,85.56,210.34Z" style="fill:#e0e0e0"/><path d="M104.16,289.7v17.52h80.12V289.7Zm8.15,14.87h-5.88V292.52h5.88Zm14-6.18h-5.87v-5.87h5.87Zm14,0h-5.87v-5.87h5.87Zm14,0H148.3v-5.87h5.88Zm14,0h-5.88v-5.87h5.88Zm14,6.18h-5.87V292.52h5.87Z" style="fill:#e6e6e6"/><rect x="114.25" y="288.11" width="12.01" height="1.59" style="fill:#e6e6e6"/><rect x="162.21" y="288.11" width="12.01" height="1.59" style="fill:#e6e6e6"/><path d="M117.89,310.05a2.66,2.66,0,1,1-2.66-2.66A2.66,2.66,0,0,1,117.89,310.05Z" style="fill:#e6e6e6"/><path d="M128,310.05a2.67,2.67,0,1,1-2.67-2.66A2.67,2.67,0,0,1,128,310.05Z" style="fill:#e6e6e6"/><path d="M165.85,310.05a2.67,2.67,0,1,1-2.67-2.66A2.67,2.67,0,0,1,165.85,310.05Z" style="fill:#e6e6e6"/><path d="M175.92,310.05a2.67,2.67,0,1,1-2.66-2.66A2.66,2.66,0,0,1,175.92,310.05Z" style="fill:#e6e6e6"/><path d="M184.81,289.7v17.52h80.12V289.7ZM193,304.57h-5.88V292.52H193Zm13.95-6.18H201v-5.87h5.87Zm14,0H215v-5.87h5.87Zm14,0H229v-5.87h5.88Zm14,0h-5.88v-5.87h5.88Zm14,6.18h-5.87V292.52h5.87Z" style="fill:#e6e6e6"/><rect x="194.9" y="288.11" width="12.01" height="1.59" style="fill:#e6e6e6"/><rect x="242.86" y="288.11" width="12.01" height="1.59" style="fill:#e6e6e6"/><path d="M198.54,310.05a2.66,2.66,0,1,1-2.66-2.66A2.66,2.66,0,0,1,198.54,310.05Z" style="fill:#e6e6e6"/><path d="M208.62,310.05a2.67,2.67,0,1,1-2.67-2.66A2.67,2.67,0,0,1,208.62,310.05Z" style="fill:#e6e6e6"/><path d="M246.5,310.05a2.67,2.67,0,1,1-2.67-2.66A2.67,2.67,0,0,1,246.5,310.05Z" style="fill:#e6e6e6"/><path d="M256.57,310.05a2.67,2.67,0,1,1-2.66-2.66A2.66,2.66,0,0,1,256.57,310.05Z" style="fill:#e6e6e6"/><polygon points="263.86 378.37 73.87 378.37 84.32 312.73 263.86 312.73 263.86 378.37" style="fill:#e6e6e6"/></g><g id="background-simple"><path d="M89.29,211.29c9.68,39.08,39.24,72,75.75,88.93s79.2,18.7,118.06,8.14,74-32.83,102.79-61c7.06-6.89,13.91-14.33,17.76-23.41s4.25-20.16-1.21-28.37c-8.75-13.18-27.34-13.86-43.1-15.2a185.72,185.72,0,0,1-109.1-47.94c-14.26-13.12-27.6-27.13-41.82-40.29C140.76,29.56,76.49,159.64,89.29,211.29Z" class="svg-accent" style="fill: rgb(30, 136, 229);" fill="#1e88e5"/><path d="M89.29,211.29c9.68,39.08,39.24,72,75.75,88.93s79.2,18.7,118.06,8.14,74-32.83,102.79-61c7.06-6.89,13.91-14.33,17.76-23.41s4.25-20.16-1.21-28.37c-8.75-13.18-27.34-13.86-43.1-15.2a185.72,185.72,0,0,1-109.1-47.94c-14.26-13.12-27.6-27.13-41.82-40.29C140.76,29.56,76.49,159.64,89.29,211.29Z" style="fill:#fff;opacity:0.9"/></g><g id="Shadows"><g id="Shadow--inject-214"><ellipse id="path--inject-214" cx="250" cy="431.27" rx="193.89" ry="11.32" style="fill:#f5f5f5"/></g></g><g id="character-1"><path d="M107.8,260.52s7.59,53,20.18,78.59c13.1,26.57,39.52,69.57,39.52,69.57l6.78-3.16s-9.2-36.43-29.86-72.36c-8.56-31-12.89-82.54-12.89-82.54Z" style="fill:#ffb573"/><path d="M107.8,260.52s7.59,53,20.18,78.59c13.1,26.57,39.52,69.57,39.52,69.57l6.78-3.16s-9.2-36.43-29.86-72.36c-8.56-31-12.89-82.54-12.89-82.54Z" class="svg-bg" style="fill:#263238;opacity:0.8;isolation:isolate"/><path d="M107.79,252.53S95.73,303.8,96.34,332.28c.64,29.62,6.4,79.76,6.4,79.76h7.48s7.06-36.9,3.53-78.2c20.47-41.94,25.71-78,25.71-78Z" style="fill:#ffb573"/><path d="M107.79,252.53S95.73,303.8,96.34,332.28c.64,29.62,6.4,79.76,6.4,79.76h7.48s7.06-36.9,3.53-78.2c20.47-41.94,25.71-78,25.71-78Z" class="svg-bg" style="fill:#263238;opacity:0.8;isolation:isolate"/><path d="M106.25,247.32c-2.6,3.15-6.14,5.36-9.6,7.51q-3.8,2.34-7.56,4.69c-2.6,1.61-5.37,3.27-8.42,3.23s-5.76-5.64-5-6.76c4.28-6.51,14.38-13.32,17.79-18.27A23.05,23.05,0,0,0,95,233.9c0-2.1.24-10.1.24-10.1-.74-12.23,2.91-25.45,5.67-27.71,4-3.27,6.15-5.51,9-2.24,1.87,2.18-1.07,23.57-.94,34.57h0c0,.32.73,5.36.83,6.68C110.29,241.78,108.85,244.18,106.25,247.32Z" class="svg-accent" style="fill: rgb(30, 136, 229);" fill="#1e88e5"/><path d="M106.25,247.32c-2.6,3.15-6.14,5.36-9.6,7.51q-3.8,2.34-7.56,4.69c-2.6,1.61-5.37,3.27-8.42,3.23s-5.76-5.64-5-6.76c4.28-6.51,14.38-13.32,17.79-18.27A23.05,23.05,0,0,0,95,233.9c0-2.1.24-10.1.24-10.1-.74-12.23,2.91-25.45,5.67-27.71,4-3.27,6.15-5.51,9-2.24,1.87,2.18-1.07,23.57-.94,34.57h0c0,.32.73,5.36.83,6.68C110.29,241.78,108.85,244.18,106.25,247.32Z" style="opacity:0.2"/><path d="M75.83,258.86l-7.54.34L72.5,267s4.21-2.14,5.49-5.4Z" style="fill:#ffb573"/><polygon points="63.99 262.92 66.85 269.28 72.46 266.97 68.24 259.21 63.99 262.92" style="fill:#ffb573"/><polygon points="72.39 255.61 77.84 266.48 83.72 265.89 75.94 251.25 72.39 255.61" class="svg-accent" style="fill: rgb(30, 136, 229);" fill="#1e88e5"/><polygon points="72.39 255.61 77.84 266.48 83.72 265.89 75.94 251.25 72.39 255.61" style="fill:#fff;opacity:0.4"/><path d="M111,414.28a6.44,6.44,0,0,1,.63,3.05c-.07,3.84-.49,14-.49,14h-.9s-.2-5-.64-7.53-1-.41-2.55,2.22-5.55,5.17-11.39,5.31c-6.85.16-9.62-.14-7.63-1.8s6.53-2.73,6.53-2.73,6.57-9.15,6.66-15.61c.09-6.92,8.12.1,9.83-.76C111.64,410.55,110.73,413.7,111,414.28Z" class="svg-bg" style="fill:#263238"/><path d="M176,407.21a6.57,6.57,0,0,1,1.86,2.5c1.56,3.51,5.47,12.9,5.47,12.9l-.82.38s-2.29-4.45-3.76-6.56-1.08.05-1.37,3.09-2.85,7-8.08,9.63c-6.14,3-8.78,3.94-7.68,1.59s4.77-5.23,4.77-5.23,2.09-11.07-.56-17c-2.85-6.31,7.4-3.34,8.58-4.85C174.94,403.57,175.45,406.81,176,407.21Z" class="svg-bg" style="fill:#263238"/><path d="M88.45,236.19l-8.61,31.05c-.62,2.25-1.22,4.76-.14,6.82,1.65,3.15,6,3.37,9.55,3.15l16.48-1c2.87-.17,6.2-.61,7.69-3.07.89-1.47.85-3.31.77-5q-.66-14.81-2.65-29.51c-.77-5.69-2.47-12.52-9.23-12.54C95.17,226.06,90.34,229.41,88.45,236.19Z" class="svg-bg" style="fill:#263238"/><path d="M88.45,236.19l-8.61,31.05c-.62,2.25-1.22,4.76-.14,6.82,1.65,3.15,6,3.37,9.55,3.15l16.48-1c2.87-.17,6.2-.61,7.69-3.07.89-1.47.85-3.31.77-5q-.66-14.81-2.65-29.51c-.77-5.69-2.47-12.52-9.23-12.54C95.17,226.06,90.34,229.41,88.45,236.19Z" style="fill:#fafafa;opacity:0.1"/><path d="M141.63,321.73c-4.49.63-8.63,3.48-20.31,3.84h-.7c-.49,0-1,0-1.53,0-3.13,0-20.88-2-24.07-4.07,4.74-28.43,10.49-59.89,11.45-65.64v0l.78-4.66-.4-1.6,0-.41,15.93.58,17.93.66S154.28,272.82,141.63,321.73Z" class="svg-bg" style="fill:#263238"/><path d="M106,192.89c3-.81,8.14-2.11,12.84-2.95a120.8,120.8,0,0,1,16.67-1.52c3.54-.15,7,0,9.77.12a4.63,4.63,0,0,1,4.15,5.86c-7.53,26.91-8.71,38.89-9,52.78l-32.95-1a1.59,1.59,0,0,1-1.52-1.38c-1.61-11.76-4.8-21.37-5.08-28.27a80.39,80.39,0,0,1,1.78-19.9A4.61,4.61,0,0,1,106,192.89Z" class="svg-accent" style="fill: rgb(30, 136, 229);" fill="#1e88e5"/><path d="M106,192.89c3-.81,8.14-2.11,12.84-2.95a120.8,120.8,0,0,1,16.67-1.52c3.54-.15,7,0,9.77.12a4.63,4.63,0,0,1,4.15,5.86c-7.53,26.91-8.71,38.89-9,52.78l-32.84-1a1.71,1.71,0,0,1-1.64-1.49c-1.62-11.7-4.79-21.28-5.07-28.16a80.39,80.39,0,0,1,1.78-19.9A4.61,4.61,0,0,1,106,192.89Z" style="opacity:0.1"/><path d="M93.64,233.5l-1.88-.69a151.88,151.88,0,0,0,6.55-24.6c1.86-9.51,2.89-14.75,10-16.16l.38,2c-5.8,1.14-6.62,5.35-8.42,14.58A155.42,155.42,0,0,1,93.64,233.5Z" class="svg-bg" style="fill:#263238"/><path d="M93.64,233.5l-1.88-.69a151.88,151.88,0,0,0,6.55-24.6c1.86-9.51,2.89-14.75,10-16.16l.38,2c-5.8,1.14-6.62,5.35-8.42,14.58A155.42,155.42,0,0,1,93.64,233.5Z" style="fill:#fafafa;opacity:0.1"/><path d="M149.62,190.58a6.76,6.76,0,0,0-10.93,3.31c-1.1,3.4,7,34.16,7,34.17,0,4,11.91,10,11.91,10C161.5,232.9,151.81,192.43,149.62,190.58Z" class="svg-accent" style="fill: rgb(30, 136, 229);" fill="#1e88e5"/><path d="M139.41,210.15c-1.11-3-3.57-10-6.73-10.11-1.91-.07-5.79.27-6.7,2s.16,7.83,2.27,17.74c1.27,6,4.23,12.89,8.18,17.58s8.76,8,14.77,6.76c2.78-.58,5.51-2.27,6.49-4.93,3-8.2-3.55-12.58-8.07-16C144.13,219,141.72,216.39,139.41,210.15Z" class="svg-accent" style="fill: rgb(30, 136, 229);" fill="#1e88e5"/><path d="M140.46,188.41l-1.24,1.89c-4.78,7.32-15.25,16.41-19.14,17.11a14,14,0,0,0-3.64-5.53,8.32,8.32,0,0,0-4.61,4.68c-2.93-5.48-2.2-12.12-1.15-15.37h0c2-.45,4.07-.9,6.07-1.25a121.07,121.07,0,0,1,16.67-1.51A57.13,57.13,0,0,1,140.46,188.41Z" class="svg-accent" style="fill: rgb(30, 136, 229);" fill="#1e88e5"/><path d="M140.46,188.41l-1.24,1.89c-4.78,7.32-15.25,16.41-19.14,17.11a14,14,0,0,0-3.64-5.53,8.32,8.32,0,0,0-4.61,4.68c-2.93-5.48-2.2-12.12-1.15-15.37h0c2-.45,4.07-.9,6.07-1.25a121.07,121.07,0,0,1,16.67-1.51A57.13,57.13,0,0,1,140.46,188.41Z" style="fill:#fff;opacity:0.2"/><path d="M97.74,160.1c.54,3.83,0,10.8-5.12,18.44-6.6,9.79,7.86,16,17.48,15.3,8.54-.62,27.49-9.08,30.76-16.06s-5.47-7-8.17-19.6-12.19-10.82-19.94-10.83C102.12,145,96.63,152.27,97.74,160.1Z" class="svg-bg" style="fill:#263238"/><path d="M116.88,184.11c2.27,3.07,3.94,6.7.37,10.76a4.9,4.9,0,0,0-1.28,3.07c0,1.82,1,3.6,7,.09,8.62-5.07,7.9-10.8,7.9-10.8-4.53-1.37-7.24-10.89-8.29-16.33Z" style="fill:#ffb573"/><path d="M122.07,179.07c.66,2.32-1.8,6-3.66,7.48a15.88,15.88,0,0,0-1.52-2.45l3.35-7.81A8.35,8.35,0,0,1,122.07,179.07Z" style="opacity:0.2;isolation:isolate"/><path d="M124.53,156.68A12.11,12.11,0,0,0,108,152.37c-8.13,4.71-7.52,17.89-4.53,25.51,3.27,8.47,14.32,9.55,20,1.85,3.84-5.13,3.36-8.87,2.68-17.71A12.25,12.25,0,0,0,124.53,156.68Z" style="fill:#ffb573"/><path d="M112.77,166.86a.75.75,0,0,0-.68.09.72.72,0,0,0-.16.66l-.74.1a1.33,1.33,0,0,1,1.75-1.57,4.33,4.33,0,0,1,2.38,1.62l-.63.38A3.71,3.71,0,0,0,112.77,166.86Z" class="svg-bg" style="fill:#263238"/><path d="M104.76,168.45a.79.79,0,0,0-.38-.51.88.88,0,0,0-.64,0,1.17,1.17,0,0,0-.74,1.11l-.74-.05a1.88,1.88,0,0,1,1.22-1.75,1.14,1.14,0,0,1,.26-.09,1.43,1.43,0,0,1,1.73,1Z" class="svg-bg" style="fill:#263238"/><path d="M108.1,174a3.13,3.13,0,0,1-2.61-.13,19.25,19.25,0,0,0,1.91-4.92Z" style="fill:#ed893e"/><path d="M114.88,173.66a.21.21,0,0,0-.1-.28.22.22,0,0,0-.29.1,5.63,5.63,0,0,1-4.3,2.85.23.23,0,0,0-.17.24h0a.2.2,0,0,0,.23.17,5.82,5.82,0,0,0,1-.2A6,6,0,0,0,114.88,173.66Z" class="svg-bg" style="fill:#263238"/><path d="M99.38,154.32c-3,3.85,2.15,8.38,2.89,6,1.19-3.95,4.58-4.88,4.56-8.19C106.79,146.91,102.4,150.48,99.38,154.32Z" class="svg-bg" style="fill:#263238"/><path d="M114,161.84h0a.42.42,0,0,0-.09-.59c-1.93-1.45-4.66-.61-4.78-.57a.42.42,0,1,0,.26.8s2.4-.78,4,.43a.41.41,0,0,0,.49,0Z" class="svg-bg" style="fill:#263238"/><path d="M101,164.6a3.29,3.29,0,0,1,2.65-1.52h0a.43.43,0,0,0,.44-.42.42.42,0,0,0-.42-.43,4.22,4.22,0,0,0-3.38,1.89h0a.41.41,0,0,0,.12.58.4.4,0,0,0,.41,0A.49.49,0,0,0,101,164.6Z" class="svg-bg" style="fill:#263238"/><path d="M111.87,154.91a9.15,9.15,0,0,1,6.35,4.61,16.27,16.27,0,0,0,1.85,3.35c.83.93,3.61,4.74,4.6,5.49s.64-2.2,1.58-2.77a18,18,0,0,0,2.88-1.62,4.84,4.84,0,0,0,1.46-4.12,9,9,0,0,0-1.69-4.17,16.06,16.06,0,0,0-22.59-4c-1.12.8-4.29,4.18-1.45,4.59.86.12,2.36-1,3.24-1.25A9,9,0,0,1,111.87,154.91Z" class="svg-bg" style="fill:#263238"/><path d="M129.38,167.53c-2.63-3.16-6.28-3.54-9.52-3.88a12,12,0,0,1-4.49-1c-3.11-1.76-4.62-6.61-4.82-8.18a3.87,3.87,0,0,0-2.45-2.84,3.37,3.37,0,0,0-2.85.92c-.66.78-.73,2-.2,3.63l-.47.15c-.6-1.8-.5-3.18.29-4.11a3.94,3.94,0,0,1,3.31-1.08,4.3,4.3,0,0,1,2.86,3.27c.19,1.44,1.67,6.16,4.58,7.8a11.79,11.79,0,0,0,4.29.93c3.17.33,7.1.74,9.86,4.05Z" class="svg-bg" style="fill:#263238"/><path d="M129.38,167.53c-2.63-3.16-6.28-3.54-9.52-3.88a12,12,0,0,1-4.49-1c-3.11-1.76-4.62-6.61-4.82-8.18a3.87,3.87,0,0,0-2.45-2.84,3.37,3.37,0,0,0-2.85.92c-.66.78-.73,2-.2,3.63l-.47.15c-.6-1.8-.5-3.18.29-4.11a3.94,3.94,0,0,1,3.31-1.08,4.3,4.3,0,0,1,2.86,3.27c.19,1.44,1.67,6.16,4.58,7.8a11.79,11.79,0,0,0,4.29.93c3.17.33,7.1.74,9.86,4.05Z" style="fill:#fff;opacity:0.1"/><path d="M129.67,167.56a2.92,2.92,0,0,0-3.27-2.5c-2.2.33-3.2,3.29-3.2,5.23,0,2.14,1.6,3.72,3.53,2.52a6.53,6.53,0,0,0,2.85-4.06A3,3,0,0,0,129.67,167.56Z" style="fill:#ffb573"/><path d="M128.55,170a2,2,0,1,1-1.36-2.57A2.05,2.05,0,0,1,128.55,170Z" style="fill:#fff"/><rect x="125.04" y="170.87" width="1.61" height="4.31" transform="matrix(0.96, 0.29, -0.29, 0.96, 56.14, -29.25)" style="fill:#fff"/><path d="M127.57,168.83a.38.38,0,0,1-.48.26.38.38,0,0,1,.23-.73A.38.38,0,0,1,127.57,168.83Z" class="svg-bg" style="fill:#263238"/><rect x="116.54" y="182.24" width="21.98" height="11.1" rx="1.34" transform="translate(-92.2 130.79) rotate(-41.28)" class="svg-accent" style="fill: rgb(30, 136, 229);" fill="#1e88e5"/><path d="M130.23,197.72l2.45-7.14-8.8,1.1s.45,4.7,3,7.1Z" style="fill:#ffb573"/><polygon points="130.17 183.58 123.81 185.59 123.91 191.66 132.68 190.58 130.17 183.58" style="fill:#ffb573"/><polygon points="135.08 196.67 122.98 199.04 123.28 204.55 137.4 201.43 135.08 196.67" class="svg-accent" style="fill: rgb(30, 136, 229);" fill="#1e88e5"/><polygon points="135.08 196.67 122.98 199.04 123.28 204.55 137.4 201.43 135.08 196.67" style="fill:#fff;opacity:0.4"/><path d="M140.17,250.86l-16.61-.67-1.39-.06-3.59-.15-1.38,0-9.75-.4c-.3-.05-.56-.18-.56-.37l-.18-3.08c0-.21.26-.38.6-.37L117,246l1.16,0,4.77.14,1.13,0,16,.45a.64.64,0,0,1,.56.28l.14,3.49C140.86,250.64,140.56,250.87,140.17,250.86Z" class="svg-accent" style="fill: rgb(30, 136, 229);" fill="#1e88e5"/><path d="M140.17,250.86l-16.61-.67-1.39-.06-3.59-.15-1.38,0-9.75-.4c-.3-.05-.56-.18-.56-.37l-.18-3.08c0-.21.26-.38.6-.37L117,246l1.16,0,4.77.14,1.13,0,16,.45a.64.64,0,0,1,.56.28l.14,3.49C140.86,250.64,140.56,250.87,140.17,250.86Z" style="fill:#fff;opacity:0.2"/><path d="M112,250.12l1.07,0a.3.3,0,0,0,.38-.24l-.3-4.36c0-.13-.19-.26-.41-.27l-1.07-.05c-.22,0-.38.1-.38.23l.3,4.38A.44.44,0,0,0,112,250.12Z" class="svg-bg" style="fill:#263238"/><path d="M130.5,251.09l1,0a.28.28,0,0,0,.35-.22l-.28-4.38c0-.12-.19-.25-.39-.25l-1,0c-.2,0-.36.08-.36.22l.29,4.36C130.13,251,130.3,251.07,130.5,251.09Z" class="svg-bg" style="fill:#263238"/><circle cx="116.11" cy="209.04" r="1.3" style="fill:#fff;opacity:0.4"/><path d="M118.19,223.32a1.3,1.3,0,1,1-1.3-1.3A1.3,1.3,0,0,1,118.19,223.32Z" style="fill:#fff;opacity:0.4"/></g><g id="character-2"><path d="M328.18,244s.51,5.69,10.57,9.28,6.81-2.95,6.81-2.95c-4.62-3.15-4.39-6.59-2.72-9.91a21.44,21.44,0,0,1,1.37-2.42l-4.4-7.68-3.23-5.63C335.77,230.82,333.41,241.64,328.18,244Z" style="fill:#7f3e3b"/><path d="M359.78,222.38c.42.1.65.72.52,1.36s-.58,1.09-1,1-.64-.72-.52-1.37S359.36,222.28,359.78,222.38Z" class="svg-bg" style="fill:#263238"/><path d="M356.87,220.43a.4.4,0,0,1,0-.56,4,4,0,0,1,3.37-1.28h0a.39.39,0,0,1-.13.77,3.27,3.27,0,0,0-2.67,1,.38.38,0,0,1-.35.12A.47.47,0,0,1,356.87,220.43Z" class="svg-bg" style="fill:#263238"/><path d="M357.51,228.92a3.23,3.23,0,0,0,2.71.32,21,21,0,0,1-1.28-5.47Z" style="fill:#630f0f"/><path d="M339.8,210.65a10.75,10.75,0,0,1,15.06-2c7,5.07,5.67,17.16,2.49,23.91a10.63,10.63,0,0,1-18.79,1.15c-3.15-5-2.05-9.73-.88-17.81A10.79,10.79,0,0,1,339.8,210.65Z" style="fill:#7f3e3b"/><path d="M353.77,220.58c1.94,1.09,2.09,5,1.64,7.3-.52,2.57-2.36,4-3.81,1.94a9.61,9.61,0,0,1-1.57-5.75C350.14,221.45,351.83,219.49,353.77,220.58Z" style="fill:#7f3e3b"/><path d="M357.12,232.81a1.64,1.64,0,0,1-1.61-1.94l0-.11.49.1,0,.11a1.13,1.13,0,0,0,1.31,1.32l.08.5Z"/><path d="M362.85,213.26a11,11,0,0,1-3.27,3.4,5,5,0,0,1-.82.45c-1.74.8-3.67,1-5.1-.29a5.63,5.63,0,0,1-.27,3.57,11.31,11.31,0,0,1-2.61,3.91,5.49,5.49,0,0,0,.18-3.08,3.08,3.08,0,0,0-1.15-1.6,2.81,2.81,0,0,0-4.06.72,5.22,5.22,0,0,0-.25,4,10.33,10.33,0,0,1,.58,4c-.21,1.35-1.37,2.68-2.72,2.46a3.44,3.44,0,0,1-2.23,1.85,3.91,3.91,0,0,1-3.44-.55,2.78,2.78,0,0,1-.52-.51,3.74,3.74,0,0,1-2.18,1.14,3.69,3.69,0,0,1-4.32-3.47,3.81,3.81,0,0,1-2.29-7.15,4.39,4.39,0,0,1,.61-8.3c-1.57-2.14,0-5.23,1.82-6.19a2.42,2.42,0,0,1,.51-.19,1.89,1.89,0,0,1,.94,0l.15,0a1.7,1.7,0,0,1,.45.22.19.19,0,0,0,.11,0A13.12,13.12,0,0,0,334.2,206l.17-.24a2.07,2.07,0,0,0,.19-.25c.77-1,1.51-2,1.53-1.5a7.62,7.62,0,0,1,13-5.82,5.08,5.08,0,0,1,8.88,2.05c2.88-.94,6.09,1.44,6.87,4.37S364.52,210.71,362.85,213.26Z" class="svg-bg" style="fill:#263238"/><g id="group"><polygon points="388.4 401.26 395.59 398.77 398.04 416.56 390.85 419.04 388.4 401.26" style="fill:#7f3e3b"/><polygon points="389.6 410.97 396.9 409.29 395.53 399.33 388.34 401.81 389.6 410.97" style="opacity:0.2;isolation:isolate"/><path d="M399.79,416.21c2.43,1.23,6.47,1.84,12.66,1.65,1.43,0,2.26,3-.84,3.76s-9.26,2.18-11.52,2.64c-2.72.55-4.15,1-5.88,1.52a3.13,3.13,0,0,1-3.91-2.11,2.73,2.73,0,0,1-.08-.76s.53-6.17.82-6.23l6.34-2.62C397.83,414,398.37,415.79,399.79,416.21Z" style="fill:#7f3e3b"/><path d="M315.33,314.15a56.75,56.75,0,0,0,4.2,20c5.23,12.54,37.5,9.94,51.62,9.34-1,17.28,14.8,64.19,14.8,64.19l12.82-3.41S392.7,360.38,393,336.5c.31-21.8-50-23.91-50-23.91Z" class="svg-accent" style="fill: rgb(30, 136, 229);" fill="#1e88e5"/><path d="M315.33,314.15a56.75,56.75,0,0,0,4.2,20c5.23,12.54,37.5,9.94,51.62,9.34-1,17.28,14.62,63.64,14.62,63.64l13-3.75s-6.07-43-5.73-66.92c.31-21.8-50-23.91-50-23.91Z" style="fill:#fff;opacity:0.30000000000000004"/><polygon points="382.51 401.3 399.4 396.8 399.98 404.07 384.24 409.08 382.51 401.3" class="svg-accent" style="fill: rgb(30, 136, 229);" fill="#1e88e5"/><polygon points="417.92 405.55 424.73 402.14 430.24 419.04 423.44 422.45 417.92 405.55" style="fill:#7f3e3b"/><path d="M431.53,417.94c2.43,1.23,6.47,1.84,12.66,1.65,1.43,0,2.26,3-.84,3.76s-9.26,2.18-11.52,2.64c-3.68.74-8.57,2.35-8.79-.89,0,0-.55-6.64-.26-6.69l6.33-2.62C429.57,415.71,430,416.92,431.53,417.94Z" style="fill:#7f3e3b"/><polygon points="420.46 413.23 427.27 409.82 424.43 401.1 417.62 404.51 420.46 413.23" style="opacity:0.2;isolation:isolate"/><path d="M331.78,313.06s-1.49,14,2.79,24.23c5.24,12.53,44.65,3.45,60.19,7.21.74,24.42,22,65.56,22,65.56l12.69-5.75s-7.27-37.47-14.18-70C413.49,310,358.33,311.94,358,312Z" class="svg-accent" style="fill: rgb(30, 136, 229);" fill="#1e88e5"/><path d="M331.78,313.06s-1.49,14,2.79,24.23c5.24,12.53,44.65,3.45,60.19,7.21.74,24.42,22,65.56,22,65.56l12.69-5.75s-7.27-37.47-14.18-70c-1.86-25.93-65.36-22.88-65.69-22.87Z" style="fill:#fff;opacity:0.5"/><polygon points="413.2 404.72 429.64 398.25 431.19 404.68 415.67 412.46 413.2 404.72" class="svg-accent" style="fill: rgb(30, 136, 229);" fill="#1e88e5"/><g id="monitor-screen"><g id="PC"><polygon points="405.88 309.66 347.07 305.89 352.72 268.82 411.53 272.58 405.88 309.66" class="svg-accent" style="fill: rgb(30, 136, 229);" fill="#1e88e5"/><path d="M404.89,312.52l-58-3.71a2.69,2.69,0,0,1-2.53-3.15L350,268.82a3.32,3.32,0,0,1,3.42-2.77l58,3.71a2.68,2.68,0,0,1,2.53,3.15l-5.61,36.84A3.32,3.32,0,0,1,404.89,312.52Z" class="svg-accent" style="fill: rgb(30, 136, 229);" fill="#1e88e5"/><polygon points="405.88 309.66 347.07 305.89 352.72 268.82 411.53 272.58 405.88 309.66" class="svg-accent" style="fill: rgb(30, 136, 229);" fill="#1e88e5"/><polygon points="405.88 309.66 347.07 305.89 352.72 268.82 411.53 272.58 405.88 309.66" style="fill:#fff;opacity:0.9"/><polygon points="403.76 282.95 392.96 282.26 393.88 276.22 404.68 276.91 403.76 282.95" class="svg-accent" style="fill: rgb(30, 136, 229);" fill="#1e88e5"/><polygon points="401.95 294.86 391.15 294.17 392.07 288.13 402.87 288.82 401.95 294.86" class="svg-accent" style="fill: rgb(30, 136, 229);" fill="#1e88e5"/><polygon points="400.13 306.78 389.33 306.09 390.25 300.05 401.05 300.74 400.13 306.78" class="svg-accent" style="fill: rgb(30, 136, 229);" fill="#1e88e5"/><polygon points="398.84 268.89 384.6 311.13 388.46 311.37 402.57 269.13 398.84 268.89" style="fill:#fff;opacity:0.1;isolation:isolate"/><polygon points="404.8 269.27 390.56 311.51 398.23 312 412.34 269.76 404.8 269.27" style="fill:#fff;opacity:0.1;isolation:isolate"/><polygon points="354.06 299.16 354 299.5 385.17 301.5 385.23 301.15 354.06 299.16" class="svg-accent" style="fill: rgb(30, 136, 229);" fill="#1e88e5"/><polygon points="385.82 297.21 354.7 295.22 357.95 273.84 389.08 275.83 385.82 297.21" class="svg-accent" style="fill: rgb(30, 136, 229);" fill="#1e88e5"/><path d="M355,303.75h0a1.44,1.44,0,0,1-1.35-1.69h0a1.76,1.76,0,0,1,1.83-1.48h0a1.43,1.43,0,0,1,1.35,1.68h0A1.77,1.77,0,0,1,355,303.75Z" class="svg-accent" style="fill: rgb(30, 136, 229);" fill="#1e88e5"/><polygon points="369.86 298.84 354.3 297.85 354.5 296.48 370.07 297.48 369.86 298.84" class="svg-accent" style="fill: rgb(30, 136, 229);" fill="#1e88e5"/><polygon points="384.66 304.74 378.65 304.35 378.85 302.98 384.87 303.37 384.66 304.74" class="svg-accent" style="fill: rgb(30, 136, 229);" fill="#1e88e5"/><polygon points="385.43 299.84 384.05 299.75 384.26 298.38 385.63 298.47 385.43 299.84" class="svg-accent" style="fill: rgb(30, 136, 229);" fill="#1e88e5"/><polygon points="383.1 299.69 381.72 299.6 381.93 298.23 383.3 298.32 383.1 299.69" class="svg-accent" style="fill: rgb(30, 136, 229);" fill="#1e88e5"/><polygon points="380.77 299.54 379.39 299.45 379.6 298.08 380.97 298.17 380.77 299.54" class="svg-accent" style="fill: rgb(30, 136, 229);" fill="#1e88e5"/><polygon points="369.86 298.84 354.3 297.85 354.5 296.48 370.07 297.48 369.86 298.84" style="fill:#fff;opacity:0.2"/><polygon points="385.23 301.15 354.06 299.16 354 299.5 385.17 301.5 385.23 301.15" style="opacity:0.2"/></g></g><path d="M386.52,311.05l19.54,1.51c.1,2.3-1,3.05-2.2,2.95l-6.25-.5-4.17-.35-6.49-.5-29.85-2,0-2.86Z" class="svg-accent" style="fill: rgb(30, 136, 229);" fill="#1e88e5"/><path d="M386.52,311.05l19.54,1.51c.1,2.3-1,3.05-2.2,2.95l-6.25-.5-4.17-.35-6.49-.5-29.85-2,0-2.86Z" style="opacity:0.4"/><path d="M379,288.89s0,0,0-.05,0,0,0,0,0,0,0,0l-.05,0h0l-1.06-.06.05-.56h.08l0-.46h-.08l.07-2.52-.05,0a2.5,2.5,0,0,0-2.26-.13l-.06,0-.22,2.52h-.07l0,.46h.08l0,.56-1.06-.07h0l-.05,0,0,0s0,0,0,0,0,0,0,.05h0a8.18,8.18,0,0,0,.05,1.14,10.49,10.49,0,0,0-1.31-.52,5.64,5.64,0,0,0-.78-.21,1.25,1.25,0,0,1-.33-1,3.44,3.44,0,0,1,.24-.68l-.05,0a3.14,3.14,0,0,0,2.31-2.1,1.14,1.14,0,0,0,.39-.42c.4,0,.77-.73.82-1.65s-.2-1.59-.57-1.71a2.49,2.49,0,0,0-.14-2.11c-.48-.78-1.52-1.26-3.09-1.43-2-.2-3.31.16-4,1.06a3,3,0,0,0-.52,2.36,2.72,2.72,0,0,0-.38,1.32c-.05.92.23,1.68.63,1.74.15.33.35.54.59.55a.56.56,0,0,0,.43-.19,3.54,3.54,0,0,0,.85,1.68,3.64,3.64,0,0,1-.82,2.42,6.19,6.19,0,0,0-2,.57,10.13,10.13,0,0,0-2.41,1.42c-.89,1.45-.53,4.94-.53,4.94l13.9.89-.1-3.62a4.93,4.93,0,0,0-.36-.85c1.21-.2,1.89-1.31,2-3.31Zm-10.57-8.51c0,.06,0,.12-.07.18a.28.28,0,0,0-.13,0,.64.64,0,0,0-.5.27,2.13,2.13,0,0,1,.42-1.41c.58-.72,1.75-1,3.46-.82a3.35,3.35,0,0,1,2.61,1.12,1.65,1.65,0,0,1,.16,1.23l-.12,0h-.06a3.29,3.29,0,0,0-1.74-2.06A3.06,3.06,0,0,0,368.41,280.38Zm6,9.5a6.65,6.65,0,0,1-.06-1.13l.93.05-.05,1.58A5.38,5.38,0,0,0,374.44,289.88ZM376.8,292a6.88,6.88,0,0,0-1.3-1.37,2.52,2.52,0,0,0,2.08.05l.05,0,.15-1.67.93.05C378.54,290.85,377.92,291.82,376.8,292Z" class="svg-accent" style="fill: rgb(30, 136, 229);" fill="#1e88e5"/><path d="M379,288.89s0,0,0-.05,0,0,0,0,0,0,0,0l-.05,0h0l-1.06-.06.05-.56h.08l0-.46h-.08l.07-2.52-.05,0a2.5,2.5,0,0,0-2.26-.13l-.06,0-.22,2.52h-.07l0,.46h.08l0,.56-1.06-.07h0l-.05,0,0,0s0,0,0,0,0,0,0,.05h0a8.18,8.18,0,0,0,.05,1.14,10.49,10.49,0,0,0-1.31-.52,5.64,5.64,0,0,0-.78-.21,1.25,1.25,0,0,1-.33-1,3.44,3.44,0,0,1,.24-.68l-.05,0a3.14,3.14,0,0,0,2.31-2.1,1.14,1.14,0,0,0,.39-.42c.4,0,.77-.73.82-1.65s-.2-1.59-.57-1.71a2.49,2.49,0,0,0-.14-2.11c-.48-.78-1.52-1.26-3.09-1.43-2-.2-3.31.16-4,1.06a3,3,0,0,0-.52,2.36,2.72,2.72,0,0,0-.38,1.32c-.05.92.23,1.68.63,1.74.15.33.35.54.59.55a.56.56,0,0,0,.43-.19,3.54,3.54,0,0,0,.85,1.68,3.64,3.64,0,0,1-.82,2.42,6.19,6.19,0,0,0-2,.57,10.13,10.13,0,0,0-2.41,1.42c-.89,1.45-.53,4.94-.53,4.94l13.9.89-.1-3.62a4.93,4.93,0,0,0-.36-.85c1.21-.2,1.89-1.31,2-3.31Zm-10.57-8.51c0,.06,0,.12-.07.18a.28.28,0,0,0-.13,0,.64.64,0,0,0-.5.27,2.13,2.13,0,0,1,.42-1.41c.58-.72,1.75-1,3.46-.82a3.35,3.35,0,0,1,2.61,1.12,1.65,1.65,0,0,1,.16,1.23l-.12,0h-.06a3.29,3.29,0,0,0-1.74-2.06A3.06,3.06,0,0,0,368.41,280.38Zm6,9.5a6.65,6.65,0,0,1-.06-1.13l.93.05-.05,1.58A5.38,5.38,0,0,0,374.44,289.88ZM376.8,292a6.88,6.88,0,0,0-1.3-1.37,2.52,2.52,0,0,0,2.08.05l.05,0,.15-1.67.93.05C378.54,290.85,377.92,291.82,376.8,292Z" style="opacity:0.2"/><path d="M406.06,312.56l0,.8a2.08,2.08,0,0,1-2.24,2.15l-6.25-.5L386,314.2l.52-3.15Z" style="opacity:0.2"/><path d="M326.73,243l19,2.43s-1.94-4.95-8.7-5.72A12.22,12.22,0,0,0,326.73,243Z" class="svg-accent" style="fill: rgb(30, 136, 229);" fill="#1e88e5"/><path d="M313.07,275.52c.76,15,.44,30.33,2.26,38.6l4.57,1.22a49.61,49.61,0,0,0,24.48.28l13.57-3.3c-.08-14.24,1.15-42,1.81-55.8a10.72,10.72,0,0,0-7.6-10.78c-1.31-.4-2.48-.73-3.2-.89a151.28,151.28,0,0,0-17.1-2.14,79.78,79.78,0,0,0-8.59-.19l-1.42.06c-2.15.09-5.56,2.24-6.22,4.27C312.89,255.2,312.62,266.49,313.07,275.52Z" class="svg-accent" style="fill: rgb(30, 136, 229);" fill="#1e88e5"/><path d="M313.07,275.52c.76,15,.44,30.33,2.26,38.6l4.57,1.22a49.61,49.61,0,0,0,24.48.28l13.57-3.3c-.08-14.24,1.15-42,1.81-55.8a10.72,10.72,0,0,0-7.6-10.78c-1.31-.4-2.48-.73-3.2-.89a151.28,151.28,0,0,0-17.1-2.14,79.78,79.78,0,0,0-8.59-.19l-1.42.06c-2.15.09-5.56,2.24-6.22,4.27C312.89,255.2,312.62,266.49,313.07,275.52Z" class="svg-bg" style="fill:#263238"/><path d="M356.43,248.23c.44,6.46,1,13.06,1.6,19.54.32,3.25.67,6.49,1.09,9.69s.88,6.39,1.5,9.45c.31,1.53.64,3,1,4.44.2.71.41,1.38.62,2,.12.29.23.65.34.88l.16.38a1.26,1.26,0,0,1,.05.15,1.67,1.67,0,0,0-.18-.28c-.2-.25-.28-.2-.22-.18a2.61,2.61,0,0,0,.44.37,10.6,10.6,0,0,0,1.56.84,42.47,42.47,0,0,0,4.13,1.52c5.95,1.82,13.13,5.14,19.49,6.55l-.46,5.7c-6.88.27-21.29-2.17-26.63-4.52a19.31,19.31,0,0,1-3-1.19,14.67,14.67,0,0,1-1.69-1,8.44,8.44,0,0,1-2.52-2.73l-.21-.41-.37-.75c-.27-.51-.43-.93-.64-1.41-.38-.93-.72-1.82-1-2.71-.57-1.75-1-3.47-1.48-5.2a176.34,176.34,0,0,1-3.46-20.3c-.38-3.36-.7-6.69-1-10.07s-.54-6.7-.68-10.13Z" style="fill:#7f3e3b"/><path d="M384.93,308.53c.87,2.45,9.26,2,9.26,2l-.76-7.88L385.91,304Z" style="fill:#7f3e3b"/><polygon points="393.43 302.61 394.19 310.49 399.29 311.26 398.02 305.73 393.43 302.61" style="fill:#7f3e3b"/><path d="M341.86,252.09c-1.44,4.88.06,19.57,2.63,26.45l17.5-1.85s2.08-19.91-1.89-25.69C353.72,241.77,344,244.59,341.86,252.09Z" class="svg-bg" style="fill:#263238"/></g><path d="M429.4,415.7l-7.12,2.74a.68.68,0,0,0-.43.79l1.67,10.61a1.38,1.38,0,0,0,1.69,1l.15-.05c3.08-1.23,4.51-2,8.44-3.45,2.41-.9,10.19-2.55,13.22-4.42s1.34-5-.09-4.46c-4.59,1.65-10.94.44-14.8-2.17C431.63,416.08,429.89,415.5,429.4,415.7Z" class="svg-bg" style="fill:#263238"/><path d="M433.14,419.74l.07.09a1.21,1.21,0,0,0,1.18,0,.73.73,0,0,0,.42-.59c.13-1.13-2.41-3.19-2.66-3.4a.2.2,0,0,0-.24,0,.23.23,0,0,0-.11.2C431.94,417.16,432.26,419.16,433.14,419.74Zm-.84-3.28c1,.84,2.19,2.09,2.11,2.7a.29.29,0,0,1-.2.25.78.78,0,0,1-.78,0c-.5-.29-.94-1.36-1.12-2.95Z" class="svg-accent" style="fill: rgb(30, 136, 229);" fill="#1e88e5"/><path d="M432.17,416.36c.92.63,2.9,1.34,3.71.9a.75.75,0,0,0,.34-.86,1,1,0,0,0-.58-.74c-1.12-.66-3.57.14-3.67.17a.21.21,0,0,0-.17.13.24.24,0,0,0,.07.2Zm3.33-.34a.64.64,0,0,1,.29.44c.06.27,0,.36-.12.41-.55.31-2.25-.2-3.16-.79.83-.22,2.25-.49,2.93-.09l.06,0Z" class="svg-accent" style="fill: rgb(30, 136, 229);" fill="#1e88e5"/><path d="M397.17,413.45l-7.28,2.18a.67.67,0,0,0-.51.71l.3,10.12a1.25,1.25,0,0,0,1.53,1l.15,0c3.15-1,4.63-1.6,8.64-2.77,2.45-.72,10.24-1.83,13.42-3.42s1.92-4.61.47-4.22a17.45,17.45,0,0,1-14.13-2.9A7,7,0,0,0,397.17,413.45Z" class="svg-bg" style="fill:#263238"/><path d="M401.85,417.78l.09.07a1.22,1.22,0,0,0,1.14-.27.73.73,0,0,0,.29-.67c-.11-1.13-3-2.6-3.33-2.75a.2.2,0,0,0-.23,0,.23.23,0,0,0-.07.22C400.13,415.52,400.87,417.4,401.85,417.78Zm-1.53-3c1.15.61,2.6,1.57,2.65,2.18a.31.31,0,0,1-.15.29.84.84,0,0,1-.76.2c-.54-.18-1.2-1.13-1.71-2.65Z" class="svg-accent" style="fill: rgb(30, 136, 229);" fill="#1e88e5"/><path d="M400.18,414.68c1,.42,3.11.69,3.82.09a.76.76,0,0,0,.14-.92,1.08,1.08,0,0,0-.72-.6c-1.24-.4-3.46.91-3.55,1a.2.2,0,0,0-.14.17.27.27,0,0,0,.11.18Zm3.18-1a.66.66,0,0,1,.38.37c.11.25,0,.35,0,.42-.46.42-2.23.29-3.25-.09.76-.39,2.09-1,2.85-.72l.06,0Z" class="svg-accent" style="fill: rgb(30, 136, 229);" fill="#1e88e5"/><path d="M349.53,218.26h0a6.62,6.62,0,1,1-7.27,11.06c-1.71-1-3.18-5.06-1.16-8.11S346.49,216.26,349.53,218.26Z" class="svg-accent" style="fill: rgb(30, 136, 229);" fill="#1e88e5"/><path d="M342.84,208.68c-1.71-1.82-4.17-4-7-4.69,0,0-2.17,2.91-2.42,3.06-.17-.09,4.81,1.92,6.6,4.06A32.58,32.58,0,0,1,345,220l3.08-1.87A23.5,23.5,0,0,0,342.84,208.68Z" class="svg-accent" style="fill: rgb(30, 136, 229);" fill="#1e88e5"/><g style="opacity:0.30000000000000004;isolation:isolate"><path d="M342.84,208.68c-1.71-1.82-4.17-4-7-4.69,0,0-2.17,2.91-2.42,3.06-.17-.09,4.81,1.92,6.6,4.06A32.58,32.58,0,0,1,345,220l3.08-1.87A23.5,23.5,0,0,0,342.84,208.68Z"/></g><path d="M350.36,220.53c1.8,1.25,2,4.14.46,6.49s-4.28,3.31-6.1,2.11-1.48-4.17.07-6.53S348.55,219.29,350.36,220.53Z" style="opacity:0.30000000000000004;isolation:isolate"/><polygon points="344.95 227.53 351.1 222.62 351.28 223.77 345.93 228.17 344.95 227.53" class="svg-bg" style="fill:#263238"/></g><g id="Chair"><polygon points="337.37 373.73 329.85 429.16 332.55 429.16 342.3 373.73 337.37 373.73" class="svg-bg" style="fill:#263238"/><path d="M328.22,266.47c-5.6-3.47-15.24-2.84-21.32-.31s-11.07,7.18-15.2,12.31c-14.9,18.51-19.79,50.64-15.5,74,1.53,8.39,4.29,16.78,9.71,23.37,4.5,5.46,10.6,9.39,16.94,12.54a83,83,0,0,0,36.79,9,63.72,63.72,0,0,0,36-10.89c7.57-5.27,13.92-12.6,16.85-21.34s2.07-18.63-3.3-26.12c-4.82-6.72-12.86-10.14-20.8-12.42-.84-.23-1.69-.45-2.55-.63-13.83-3-24.13-21.52-26.08-35.54C339.78,290.37,335.94,271.26,328.22,266.47Z" class="svg-accent" style="fill: rgb(30, 136, 229);" fill="#1e88e5"/><polygon points="303.51 383.8 293.88 433 297.34 433 309.81 383.8 303.51 383.8" class="svg-bg" style="fill:#263238"/><polygon points="361.76 383.8 371.39 433 367.94 433 355.46 383.8 361.76 383.8" class="svg-bg" style="fill:#263238"/></g><g id="Podcaster"><path d="M175.52,126.41l-.16,0a.51.51,0,0,1-.32-.63,64,64,0,0,1,4.21-10.06.5.5,0,1,1,.88.47,63.49,63.49,0,0,0-4.14,9.9A.49.49,0,0,1,175.52,126.41Z" class="svg-accent" style="fill: rgb(30, 136, 229);" fill="#1e88e5"/><path d="M180.06,180.48a.51.51,0,0,1-.43-.26c-7.7-13.79-10-31.32-6.31-48.11a.52.52,0,0,1,.6-.38.5.5,0,0,1,.38.6c-3.64,16.55-1.38,33.82,6.2,47.4a.49.49,0,0,1-.19.68A.45.45,0,0,1,180.06,180.48Z" class="svg-accent" style="fill: rgb(30, 136, 229);" fill="#1e88e5"/><path d="M166.16,162a.5.5,0,0,1-.49-.38,60.67,60.67,0,0,1,5-41.23.5.5,0,0,1,.67-.21.49.49,0,0,1,.21.67,59.7,59.7,0,0,0-4.87,40.54.5.5,0,0,1-.38.6Z" class="svg-accent" style="fill: rgb(30, 136, 229);" fill="#1e88e5"/><path d="M171.4,175.7a.5.5,0,0,1-.44-.25,50.42,50.42,0,0,1-3.27-7.14.5.5,0,1,1,.93-.35,49.62,49.62,0,0,0,3.22,7,.5.5,0,0,1-.44.74Z" class="svg-accent" style="fill: rgb(30, 136, 229);" fill="#1e88e5"/><path d="M158.48,136.52h-.12a.51.51,0,0,1-.37-.61A46.4,46.4,0,0,1,162,125a.5.5,0,1,1,.88.46A45.94,45.94,0,0,0,159,136.13.5.5,0,0,1,158.48,136.52Z" class="svg-accent" style="fill: rgb(30, 136, 229);" fill="#1e88e5"/><path d="M162.73,170.93a.5.5,0,0,1-.43-.25,48.32,48.32,0,0,1-5.42-28.05.5.5,0,0,1,1,.09,47.33,47.33,0,0,0,5.29,27.47.5.5,0,0,1-.19.68A.54.54,0,0,1,162.73,170.93Z" class="svg-accent" style="fill: rgb(30, 136, 229);" fill="#1e88e5"/><path d="M325.43,166.93l-.13,0a.49.49,0,0,1-.35-.61,69.52,69.52,0,0,0-5.08-50.13.5.5,0,0,1,.21-.68.5.5,0,0,1,.67.21,70.51,70.51,0,0,1,5.16,50.86A.5.5,0,0,1,325.43,166.93Z" class="svg-accent" style="fill: rgb(30, 136, 229);" fill="#1e88e5"/><path d="M319.94,180.48a.45.45,0,0,1-.25-.07.49.49,0,0,1-.19-.68,58.53,58.53,0,0,0,3.49-7.46.49.49,0,0,1,.64-.29.5.5,0,0,1,.29.65,59.2,59.2,0,0,1-3.55,7.59A.51.51,0,0,1,319.94,180.48Z" class="svg-accent" style="fill: rgb(30, 136, 229);" fill="#1e88e5"/><path d="M335.28,151.7h0a.51.51,0,0,1-.47-.53,58.58,58.58,0,0,0-6.3-30.37.5.5,0,0,1,.88-.46,59.51,59.51,0,0,1,6.42,30.89A.51.51,0,0,1,335.28,151.7Z" class="svg-accent" style="fill: rgb(30, 136, 229);" fill="#1e88e5"/><path d="M328.6,175.7a.5.5,0,0,1-.44-.74,52.79,52.79,0,0,0,5.89-17.11.5.5,0,1,1,1,.16,53.69,53.69,0,0,1-6,17.44A.5.5,0,0,1,328.6,175.7Z" class="svg-accent" style="fill: rgb(30, 136, 229);" fill="#1e88e5"/><path d="M340.75,133.65a.49.49,0,0,1-.47-.36,45,45,0,0,0-3.19-7.85A.5.5,0,1,1,338,125a44.31,44.31,0,0,1,3.26,8,.51.51,0,0,1-.33.63Z" class="svg-accent" style="fill: rgb(30, 136, 229);" fill="#1e88e5"/><path d="M337.27,170.93a.54.54,0,0,1-.25-.06.5.5,0,0,1-.19-.68c4.9-8.77,6.64-19.61,4.9-30.51a.52.52,0,0,1,.42-.58.51.51,0,0,1,.57.42c1.77,11.13,0,22.19-5,31.16A.5.5,0,0,1,337.27,170.93Z" class="svg-accent" style="fill: rgb(30, 136, 229);" fill="#1e88e5"/><path d="M230.23,75a.5.5,0,0,1-.13-1A71.73,71.73,0,0,1,265,73.13a.5.5,0,0,1,.38.6.49.49,0,0,1-.59.38,70.87,70.87,0,0,0-34.4.85Z" class="svg-accent" style="fill: rgb(30, 136, 229);" fill="#1e88e5"/><path d="M217.12,80.37a.5.5,0,0,1-.24-.93,59.36,59.36,0,0,1,7.56-3.55.5.5,0,0,1,.64.29.49.49,0,0,1-.28.64,58,58,0,0,0-7.43,3.49A.54.54,0,0,1,217.12,80.37Z" class="svg-accent" style="fill: rgb(30, 136, 229);" fill="#1e88e5"/><circle cx="249.97" cy="147.73" r="71.2" class="svg-accent" style="fill: rgb(30, 136, 229);" fill="#1e88e5"/><circle cx="249.97" cy="147.73" r="71.2" style="fill:#fff;opacity:0.9"/><path d="M250.14,220.36a72.2,72.2,0,1,1,72.2-72.2A72.28,72.28,0,0,1,250.14,220.36Zm0-142.4a70.2,70.2,0,1,0,70.2,70.2A70.28,70.28,0,0,0,250.14,78Z" class="svg-accent" style="fill: rgb(30, 136, 229);" fill="#1e88e5"/><g style="clip-path:url(#clip-path)"><path d="M213.33,122.42c-.21-.52-5-12.84,1.8-22.33,5.18-7.27,15.44-10.61,30.52-9.94,12.09.54,20.3,3.76,24.39,9.57,4.92,7,2.36,15.26,1.39,18.37l-.11.37L266.54,117l.12-.39c.84-2.7,2.79-9-.71-14-3.15-4.48-10.06-7-20.53-7.46-13.25-.59-22.09,2-26.21,7.85-5.21,7.3-1.27,17.49-1.23,17.59Z" class="svg-bg" style="fill:#263238"/><path d="M265.64,128.77c0,7.21,2.59,13.06,5.78,13.06s5.79-5.85,5.79-13.06-2.59-13.07-5.79-13.07S265.64,121.55,265.64,128.77Z" class="svg-bg" style="fill:#263238"/><path d="M265.64,128.77c0,7.21,2.59,13.06,5.78,13.06s5.79-5.85,5.79-13.06-2.59-13.07-5.79-13.07S265.64,121.55,265.64,128.77Z" style="fill:#fff;opacity:0.2"/><ellipse cx="266.81" cy="128.77" rx="7.55" ry="17.05" class="svg-bg" style="fill:#263238"/><path d="M250,76.53a71.19,71.19,0,0,0-54.53,117l-.19-.81c0-3.65,12.32-10,15.5-11.82,7.28-4.18,15.72-6.07,24.11-6.44s17-.08,25.08,2.08c13.72,3.64,19.84,8.34,19.84,8.34,5.11,4.87,11,6.83,15.51,17.8A71.2,71.2,0,0,0,250,76.53Z" style="fill:none"/><path d="M279.78,184.85s-6.12-4.7-19.84-8.34c-8.12-2.16-16.68-2.46-25.08-2.08s-16.83,2.26-24.11,6.44c-3.18,1.82-15.5,8.17-15.5,11.82l.19.81a71.2,71.2,0,0,0,99.85,9.15C290.77,191.68,284.89,189.72,279.78,184.85Z" class="svg-accent" style="fill: rgb(30, 136, 229);" fill="#1e88e5"/><path d="M252.63,160.44c-2.89,7.55-3.71,15.72,10.28,19.14,0,0,6.78,10.41-15.28,12-23.54,1.63-24.11-14.17-24.11-14.17,9.25-6.13,7.73-24.45,5.83-34.44Z" style="fill:#ff8b7b"/><path d="M235,160.64c.35,4.38,7.44,11.47,15.87,7.54a26.78,26.78,0,0,1,1.52-5.51l-13.79-10.34C238.11,153.34,234.89,158.25,235,160.64Z" style="opacity:0.2;isolation:isolate"/><path d="M220.44,121.27c1.65,17.12,1.72,27.24,10.71,35.77,13.45,12.86,34.43,4.23,38-13,3.15-15.58,0-41-17.1-47.27a23.51,23.51,0,0,0-31.58,24.54Z" style="fill:#ff8b7b"/><path d="M215.56,132.89A16.29,16.29,0,0,0,223,143c4.93,2.93,8.89-1.12,8.77-6.55-.1-4.91-2.83-12.28-8.41-13S214.32,127.75,215.56,132.89Z" style="fill:#ff8b7b"/><path d="M246.68,125.18c0,1.4.83,2.51,1.72,2.46s1.62-1.17,1.58-2.58-.83-2.51-1.65-2.55S246.55,123.83,246.68,125.18Z" class="svg-bg" style="fill:#263238"/><path d="M262.46,124.66c0,1.41.81,2.52,1.64,2.53s1.62-1.18,1.57-2.59-.83-2.51-1.75-2.47S262.44,123.24,262.46,124.66Z" class="svg-bg" style="fill:#263238"/><path d="M257.47,125.51a50.8,50.8,0,0,0,7.09,11.73,8.05,8.05,0,0,1-6.7,1.52Z" style="fill:#ff5652"/><path d="M267.65,117.24a.82.82,0,0,0,.08-1.15.76.76,0,0,0-.5-.27,8.14,8.14,0,0,0-7.15,2.28.83.83,0,0,0,.05,1.16h0a.83.83,0,0,0,1.16-.09,6.5,6.5,0,0,1,5.69-1.83A.79.79,0,0,0,267.65,117.24Z" class="svg-bg" style="fill:#263238"/><path d="M251.84,119.13a.81.81,0,0,0,.6-1,.85.85,0,0,0-.31-.47,8.15,8.15,0,0,0-7.4-1.27.81.81,0,0,0-.49,1h0a.84.84,0,0,0,1.08.47,6.47,6.47,0,0,1,5.89,1A.77.77,0,0,0,251.84,119.13Z" class="svg-bg" style="fill:#263238"/><path d="M262.3,144.25s-5.29-1.74-19.81-2.41c2.16,5.5,5.7,10,13.14,10.36S262.3,144.25,262.3,144.25Z" class="svg-bg" style="fill:#263238"/><path d="M251.81,147.76a13,13,0,0,1,8.32,2.94,6,6,0,0,1-4.47,1.4,12.82,12.82,0,0,1-8.29-2.94A6,6,0,0,1,251.81,147.76Z" style="fill:#ff5652"/><path d="M261.63,144.06a2.86,2.86,0,0,1-2.05,2.58,67.45,67.45,0,0,1-12.95-2,5,5,0,0,1-3.5-2.83A100.06,100.06,0,0,1,261.63,144.06Z" style="fill:#fff"/><path d="M276.05,202l-6.87-10a1.13,1.13,0,0,0-1.53-.31l-11.73,7.45-1.18-5.31a.78.78,0,0,0-.76-.6l-2.08,0a.76.76,0,0,0-.75.75l-.27,18.46h0l-6.32,6.22c1.79.13,3.59.22,5.41.22s3.86-.09,5.76-.25,4.07-.41,6.06-.74a33.86,33.86,0,0,0,6.68-5.23l0-.07,7.48-9.29A1.11,1.11,0,0,0,276.05,202Z" style="fill:#ff8b7b"/><ellipse cx="220.31" cy="128.77" rx="7.55" ry="17.05" class="svg-bg" style="fill:#263238"/><path d="M221.48,128.77c0,7.21-2.59,13.06-5.79,13.06s-5.78-5.85-5.78-13.06,2.59-13.07,5.78-13.07S221.48,121.55,221.48,128.77Z" class="svg-bg" style="fill:#263238"/><path d="M221.48,128.77c0,7.21-2.59,13.06-5.79,13.06s-5.78-5.85-5.78-13.06,2.59-13.07,5.78-13.07S221.48,121.55,221.48,128.77Z" style="fill:#fff;opacity:0.2"/><path d="M288.1,198c-12,0-18.42-9.28-18.73-26.85a1,1,0,0,1,1-1,1,1,0,0,1,1,1c.29,16.51,5.92,24.88,16.73,24.88,11,0,16.46-8.14,16.72-24.88a1,1,0,0,1,1-1h0a1,1,0,0,1,1,1C306.55,189,300.25,198,288.1,198Z" class="svg-bg" style="fill:#263238"/><path d="M305.82,172.16H270.37a1,1,0,0,1,0-2h35.45a1,1,0,0,1,0,2Z" class="svg-bg" style="fill:#263238"/><path d="M297.83,164l-19.47,0,.6-21.06.4-.19a19.22,19.22,0,0,1,17.47,0l.41.19Z" class="svg-bg" style="fill:#263238"/><g style="opacity:0.1"><path d="M297.83,164l-19.47,0,.6-21.06.4-.19a19.22,19.22,0,0,1,17.47,0l.41.19Z" style="fill:#fafafa"/></g><path d="M278.36,164l19.47,0L297.24,185l-.41.21a19.28,19.28,0,0,1-17.47,0L279,185Z" class="svg-bg" style="fill:#263238"/><rect x="277.84" y="162.31" width="20.58" height="3.54" class="svg-bg" style="fill:#263238"/><rect x="277.84" y="162.31" width="20.58" height="3.54" style="fill:#fff;opacity:0.12"/><path d="M290.52,173.86a3.06,3.06,0,1,1-.47-4.31A3.07,3.07,0,0,1,290.52,173.86Z" class="svg-bg" style="fill:#263238"/><circle cx="288.13" cy="171.94" r="3.06" style="fill:#fff;opacity:0.2"/><path d="M289.44,170.5a.65.65,0,0,1-.65.65.66.66,0,0,1-.66-.65.67.67,0,0,1,.66-.66A.66.66,0,0,1,289.44,170.5Z" class="svg-accent" style="fill: rgb(30, 136, 229);" fill="#1e88e5"/><path d="M288.1,224.17a1,1,0,0,1-1-1V197a1,1,0,1,1,2,0v26.15A1,1,0,0,1,288.1,224.17Z" class="svg-bg" style="fill:#263238"/></g></g></svg>